<mxfile host="app.diagrams.net" modified="2020-09-21T16:23:21.527Z" agent="5.0 (X11; Linux x86_64) AppleWebKit/537.36 (KHTML, like Gecko) Chrome/79.0.3945.117 Safari/537.36" etag="6VKgXJhauM6Qm-rXuHIq" version="13.7.3" type="github" pages="6">
  <diagram name="intro" id="97916047-d0de-89f5-080d-49f4d83e522f">
    <mxGraphModel dx="1176" dy="463" grid="1" gridSize="10" guides="1" tooltips="1" connect="1" arrows="1" fold="1" page="1" pageScale="1.5" pageWidth="1169" pageHeight="827" background="#F1FAEE" math="0" shadow="0">
      <root>
        <mxCell id="0" />
        <mxCell id="1" parent="0" />
        <mxCell id="EE5xZ2q__uzkWsmJVVIF-55" value="&lt;font style=&quot;font-size: 48px&quot;&gt;Intro to containers and docker&lt;/font&gt;" style="rounded=0;whiteSpace=wrap;html=1;sketch=0;strokeColor=#457B9D;fillColor=#A8DADC;fontColor=#1D3557;" vertex="1" parent="1">
          <mxGeometry x="740" y="160" width="760" height="90" as="geometry" />
        </mxCell>
      </root>
    </mxGraphModel>
  </diagram>
  <diagram id="a4ZmFdLQtt-COsJ1I44V" name="why">
    <mxGraphModel dx="1176" dy="463" grid="1" gridSize="10" guides="1" tooltips="1" connect="1" arrows="1" fold="1" page="1" pageScale="1" pageWidth="827" pageHeight="1169" math="0" shadow="0">
      <root>
        <mxCell id="ul4nJKh-M60WZBpSeLOE-0" />
        <mxCell id="ul4nJKh-M60WZBpSeLOE-1" parent="ul4nJKh-M60WZBpSeLOE-0" />
        <mxCell id="ul4nJKh-M60WZBpSeLOE-2" value="&lt;font style=&quot;font-size: 48px&quot;&gt;Why do we need containers??&lt;/font&gt;" style="rounded=0;whiteSpace=wrap;html=1;sketch=0;strokeColor=#457B9D;fillColor=#A8DADC;fontColor=#1D3557;" vertex="1" parent="ul4nJKh-M60WZBpSeLOE-1">
          <mxGeometry x="54" y="200" width="720" height="80" as="geometry" />
        </mxCell>
      </root>
    </mxGraphModel>
  </diagram>
  <diagram id="OfZGNb0lcO4w5ZMPVLXP" name="example">
    <mxGraphModel dx="2003" dy="463" grid="1" gridSize="10" guides="1" tooltips="1" connect="1" arrows="1" fold="1" page="1" pageScale="1" pageWidth="827" pageHeight="1169" math="0" shadow="0">
      <root>
        <mxCell id="cmKNNhqOIsfOqz5O4M-r-0" />
        <mxCell id="cmKNNhqOIsfOqz5O4M-r-1" parent="cmKNNhqOIsfOqz5O4M-r-0" />
        <mxCell id="yIElXzsdct-lwulg5QKM-1" style="edgeStyle=orthogonalEdgeStyle;rounded=1;sketch=0;orthogonalLoop=1;jettySize=auto;html=1;exitX=0.5;exitY=1;exitDx=0;exitDy=0;strokeColor=#457B9D;fillColor=#A8DADC;fontColor=#1D3557;" edge="1" parent="cmKNNhqOIsfOqz5O4M-r-1" source="yIElXzsdct-lwulg5QKM-0" target="yIElXzsdct-lwulg5QKM-2">
          <mxGeometry relative="1" as="geometry">
            <mxPoint x="100" y="190" as="targetPoint" />
          </mxGeometry>
        </mxCell>
        <mxCell id="yIElXzsdct-lwulg5QKM-3" style="edgeStyle=orthogonalEdgeStyle;rounded=1;sketch=0;orthogonalLoop=1;jettySize=auto;html=1;exitX=0.5;exitY=1;exitDx=0;exitDy=0;strokeColor=#457B9D;fillColor=#A8DADC;fontColor=#1D3557;entryX=0.565;entryY=0.017;entryDx=0;entryDy=0;entryPerimeter=0;" edge="1" parent="cmKNNhqOIsfOqz5O4M-r-1" source="yIElXzsdct-lwulg5QKM-0" target="yIElXzsdct-lwulg5QKM-4">
          <mxGeometry relative="1" as="geometry">
            <mxPoint x="680" y="140" as="targetPoint" />
          </mxGeometry>
        </mxCell>
        <mxCell id="yIElXzsdct-lwulg5QKM-0" value="&lt;font style=&quot;font-size: 36px&quot;&gt;GJ&amp;nbsp;ecommerce&lt;/font&gt;" style="rounded=0;whiteSpace=wrap;html=1;sketch=0;strokeColor=#457B9D;fillColor=#A8DADC;fontColor=#1D3557;" vertex="1" parent="cmKNNhqOIsfOqz5O4M-r-1">
          <mxGeometry x="260" y="40" width="280" height="60" as="geometry" />
        </mxCell>
        <mxCell id="yIElXzsdct-lwulg5QKM-6" style="edgeStyle=orthogonalEdgeStyle;rounded=1;sketch=0;orthogonalLoop=1;jettySize=auto;html=1;strokeColor=#457B9D;fillColor=#A8DADC;fontColor=#1D3557;" edge="1" parent="cmKNNhqOIsfOqz5O4M-r-1" source="yIElXzsdct-lwulg5QKM-2">
          <mxGeometry relative="1" as="geometry">
            <mxPoint x="300" y="320" as="targetPoint" />
          </mxGeometry>
        </mxCell>
        <mxCell id="yIElXzsdct-lwulg5QKM-17" style="edgeStyle=orthogonalEdgeStyle;rounded=1;sketch=0;orthogonalLoop=1;jettySize=auto;html=1;exitX=0.5;exitY=1;exitDx=0;exitDy=0;entryX=0.5;entryY=0;entryDx=0;entryDy=0;strokeColor=#457B9D;fillColor=#A8DADC;fontColor=#1D3557;" edge="1" parent="cmKNNhqOIsfOqz5O4M-r-1" source="yIElXzsdct-lwulg5QKM-2" target="yIElXzsdct-lwulg5QKM-8">
          <mxGeometry relative="1" as="geometry" />
        </mxCell>
        <mxCell id="yIElXzsdct-lwulg5QKM-2" value="&lt;font style=&quot;font-size: 36px&quot;&gt;Food&lt;/font&gt;" style="rounded=0;whiteSpace=wrap;html=1;fillColor=#f8cecc;strokeColor=#b85450;" vertex="1" parent="cmKNNhqOIsfOqz5O4M-r-1">
          <mxGeometry x="40" y="160" width="260" height="60" as="geometry" />
        </mxCell>
        <mxCell id="yIElXzsdct-lwulg5QKM-14" style="edgeStyle=orthogonalEdgeStyle;rounded=1;sketch=0;orthogonalLoop=1;jettySize=auto;html=1;strokeColor=#457B9D;fillColor=#A8DADC;fontColor=#1D3557;exitX=0.5;exitY=1;exitDx=0;exitDy=0;" edge="1" parent="cmKNNhqOIsfOqz5O4M-r-1" source="yIElXzsdct-lwulg5QKM-4" target="yIElXzsdct-lwulg5QKM-12">
          <mxGeometry relative="1" as="geometry">
            <Array as="points">
              <mxPoint x="680" y="270" />
              <mxPoint x="860" y="270" />
            </Array>
          </mxGeometry>
        </mxCell>
        <mxCell id="yIElXzsdct-lwulg5QKM-16" style="edgeStyle=orthogonalEdgeStyle;rounded=1;sketch=0;orthogonalLoop=1;jettySize=auto;html=1;exitX=0.5;exitY=1;exitDx=0;exitDy=0;strokeColor=#457B9D;fillColor=#A8DADC;fontColor=#1D3557;entryX=0.419;entryY=0.067;entryDx=0;entryDy=0;entryPerimeter=0;" edge="1" parent="cmKNNhqOIsfOqz5O4M-r-1" source="yIElXzsdct-lwulg5QKM-4" target="yIElXzsdct-lwulg5QKM-11">
          <mxGeometry relative="1" as="geometry" />
        </mxCell>
        <mxCell id="yIElXzsdct-lwulg5QKM-4" value="&lt;font style=&quot;font-size: 36px&quot;&gt;Clothes&lt;/font&gt;" style="whiteSpace=wrap;html=1;rounded=0;sketch=0;strokeColor=#b85450;fillColor=#f8cecc;" vertex="1" parent="cmKNNhqOIsfOqz5O4M-r-1">
          <mxGeometry x="550" y="160" width="260" height="60" as="geometry" />
        </mxCell>
        <mxCell id="yIElXzsdct-lwulg5QKM-8" value="&lt;font style=&quot;font-size: 36px&quot;&gt;Snack&lt;/font&gt;" style="rounded=0;whiteSpace=wrap;html=1;fillColor=#f8cecc;strokeColor=#b85450;" vertex="1" parent="cmKNNhqOIsfOqz5O4M-r-1">
          <mxGeometry x="-120" y="320" width="240" height="60" as="geometry" />
        </mxCell>
        <mxCell id="yIElXzsdct-lwulg5QKM-9" value="&lt;font style=&quot;font-size: 36px&quot;&gt;Masala&lt;/font&gt;" style="rounded=0;whiteSpace=wrap;html=1;fillColor=#f8cecc;strokeColor=#b85450;" vertex="1" parent="cmKNNhqOIsfOqz5O4M-r-1">
          <mxGeometry x="170" y="320" width="230" height="60" as="geometry" />
        </mxCell>
        <mxCell id="yIElXzsdct-lwulg5QKM-11" value="&lt;span style=&quot;font-size: 36px&quot;&gt;Kurta&lt;/span&gt;" style="rounded=0;whiteSpace=wrap;html=1;fillColor=#f8cecc;strokeColor=#b85450;" vertex="1" parent="cmKNNhqOIsfOqz5O4M-r-1">
          <mxGeometry x="450" y="320" width="230" height="60" as="geometry" />
        </mxCell>
        <mxCell id="yIElXzsdct-lwulg5QKM-12" value="&lt;font style=&quot;font-size: 36px&quot;&gt;chaniya choli&lt;/font&gt;" style="rounded=0;whiteSpace=wrap;html=1;fillColor=#f8cecc;strokeColor=#b85450;" vertex="1" parent="cmKNNhqOIsfOqz5O4M-r-1">
          <mxGeometry x="730" y="320" width="240" height="60" as="geometry" />
        </mxCell>
      </root>
    </mxGraphModel>
  </diagram>
  <diagram id="37AhZrzAT1mDtLezxB8e" name="pros">
    <mxGraphModel dx="2003" dy="463" grid="1" gridSize="10" guides="1" tooltips="1" connect="1" arrows="1" fold="1" page="1" pageScale="1" pageWidth="827" pageHeight="1169" math="0" shadow="0">
      <root>
        <mxCell id="xfgPGGNm15GK5k0iS-4h-0" />
        <mxCell id="xfgPGGNm15GK5k0iS-4h-1" parent="xfgPGGNm15GK5k0iS-4h-0" />
        <mxCell id="xfgPGGNm15GK5k0iS-4h-7" value="" style="shape=image;verticalLabelPosition=bottom;labelBackgroundColor=#ffffff;verticalAlign=top;aspect=fixed;imageAspect=0;image=data:image/jpeg,/9j/4AAQSkZJRgABAQAAAQABAAD/2wCEAAkGBxATEBUQEhIQFRAQDxAVGBYQEBESFRgQFRUWFxUVFxUYHCggGBomHRUVITEhJikrLi46Fx8zODMtNygtLisBCgoKDg0OGhAQGisfFR0tKy0rLSsrKy0rMi43LS43Ly03MCsrKy0rLSsrKy0rKystKy0rNSstKys3Ny03NysrK//AABEIAMoA+gMBIgACEQEDEQH/xAAcAAEAAQUBAQAAAAAAAAAAAAAABgECAwQFBwj/xAA8EAACAQIEAgcFBwQBBQEAAAABAgADEQQSITEFQQYTIjJRYZFCcYGhsQcjM1JiksFy0eHwwhRDgqLxFv/EABgBAQEBAQEAAAAAAAAAAAAAAAABAgME/8QAHhEBAAMBAQEAAwEAAAAAAAAAAAECERIxAyEyQQT/2gAMAwEAAhEDEQA/APcYiICIiAiIgIiICIiAiIgIiICIiAiIgIiICIiAiIgIiICIiAiIgIiICIiAiIgIiICIiAiIgIiICIiAiIgIiICIiAiIgIiICIiAiIgIiICIiAiIgIiICIiAiIgIiICIiAiIgIiICIiAiIgIiICIiAiIgIiICIiAiIgIiICIlCQIFYmB8XTG7oP/ACEwPxeiPav7gT/EDeicp+O0+SufQfzNd+Pnkg+LX+glyU2HdiRt+NVjtlHuF/qZrvxKsf8AuN8LD6RydJZMb10G7KPeQJEHrOd2Y+9iZjl5TpK34pQH/cX4XP0mu/HKI2zn3Lb6yOSkcnTuVOkI5Uz8WA+kxr0ge+tNbeTG/rOPKS4myk9DjVFtyVP6tvUaToJUBFwQR5G8hErTqMpupIP6SR9JOV6TiJF6HG6y72YfqFj6idLD8epnvAqf3D1EmLrrRMVHEI+qsD7jMsikREBERAREQEREBERAREQIdU4jUzsjVHuGYbkDQ25SxmJ3JPvJMx9IqeXEv4Nlb1Av8wZr0MTybbxm4Yb6qvM+gl1k/UfiBMMXlRmzL+UfG5jrjyAHuAmO8pAsddbg2J9D7xLest3tPPl68pkgwKRLDTt3TbyOo/xKCpyOh89vgYF8SspApKS6UgUiVlIFIlZSABINxofEG03cPxasvtZh4Pr895pSkCQYfpAp76Eea6j0nSw+OpP3XB8tj6GQ2Uk5XU8iQ3D8RrJs5t4N2h850sP0hPtp8UP8H+8zjWpBE0sPxSi+gcA+Ddk/OboMikREBERAREQIf0tt1486a/Uziyd8X4YtdLHRh3W8D/aQfE0HpsUcWIM3EsTC+hiCPdN9WBFxtOVaX0apU3EqOlaLy2lVDDT0l1oCIvEBKESsQMXVkd0/A6j4HlC1Rex0Pgf4POZJRlB0IvASksysO6bjwY/Qyq1AdNj4HQ/5gXREQKRKykCkSs1sXj6NL8SpTT+pgD6bwM8Tg4npZhx3BVqH9KZV/c5HyvOXi+l1b2EpJ5uTUPpoPrJsLkpjMGKxlKmL1HRP6mA+Rnn+J4vXqd6rVI8FtTX5W+s06YF9gCSNbi/xYiTpeU2xHSnDDResqf0JYfuawmj/APuMSv4IVB+pmqf+ossh9bGop7RFgzbsD2RewFtSfPQTUbjFMt2Q7HKF0vbe97Xk1cencC6d4+rWo0WNEipXRWPVEMVJsQLNYe+09UniPQBhVxuFAVLI9RrhbOeyzds31tYAbWnt0ikREBERATn8Y4WtdLbOL5W/g+U6EQPOK9FqbFHFiDLBJzxnha118HA7LfwfKQitRamxRwQQef8Au03E6xMYojEG43nQoVw2nP8A3ac8iAfWVHVlswUMTybfxmzA4HEOI4hCFOVbkgFQLNfbKzaK/kwsfKOHccN8lS7EWF1U51J26ykNVvyYXB30ncq0lYFWAKsLEEXBHmOcrTphRZQAALWAAFhtoIFZSXTRxnFsNS0qVqSnwLgt+0awNu0FR4SO4rpjQH4aVannlFNfV9flOTiel2JbuLSp+4NVPzsvyk1cTi01MXxKhS/Eq01PgXF/Teee4nH4ip+JWqt5Z8o/alhNVEA2sPcAL/GTpeU1xPS/Dr3Fq1PMKEX9zkH5TlYnpbiG/DSkg8Tmqn/iPrI+7qNTYe//ADNWrxmitti1iDYs19bg2vYWGmkk2lch1cVxSu4PWVqpAF7Bggt7ktNNEtqAi357n5f3nIxPHARopJfs6jKPlMNeriCbMwXS+VQWa1jbQf0mRXaqVFGrP8wo/wB+M0qvF6K7an9Iv85zDhQb3LMwzbkk6Z/ZS/NPETao00U2PZW5By5QbdsaAXP5dyNoDE8XcgZabAk2u40+FpZXpVjpUc27NwgsO0dLsbD6zEtXLmUhs1Wq9ueme4JPIWtOhjcQ9yt3CBhpoBmAU97mdDsec6XpFcyd2EaFPCKLG17gasbjUHm1hv75kqAdXYXuaiHRtOr0J5Dw5esq2lybDlcm2x8W1Oh8DvOngOjeMxWT/p8NWcCoczsGSnYK2UhqlgdTy/iSn7Rqpp9k1EHGKw2TC1GO3eLKtxblY/WexyO9EuitLBoCLtXamqu9yQbakKDsLyRR9LdWmQiImAiIgIiICc3jPClrL4VAND/B8p0ogeb1qTIxRgQRca8pS0m3G+ErWW4sKgGh8R4GQqrTZGKsCCDbXkZuJ1iYxaZcvEhTBNQ9hQSTuQALn3zidIuI1KeVUsMwYk2BOltBf3yG9IMTUai+Z3PZ5sfpEyRCd4nppRH4dOrU8yBTX1bX5Tk4npdim7gpUx+lTUb1aw+Uj1BgVU+KL9JixmIQKQzhb+eszstY38Vj61T8WtVYfqfKv7UsJqtZCq2Iz7ZVAFtBcne2s5z9IUQBULHKCLrpowINzubgkTTqcUrsLqmVQO82wAHidALSfkSMhQdWFrm9gTpa4IY6b6WmouLUZwzq1721HZGvh/uk4DUqrntVGY9rs0wX1UgEaacx6SlDCUy707H7t8mZjck25DYfOb+fzte3MenjoNxwBerpqzAbe/6zXfGYltOzTB8bA6mw85k4SiClUD5sivYkd7KGtpaZXKZyaauq3Ghyg36xixJsW1OttBqJmYycVz3w5IzO7NoTqcg7ubdv4E3MJg0udFAW+pViDZmAUM1gSQt7AS1Nuz+XdBf2F9s39biX06dyzDL2AzElmY71dA3je/PS5kGhRrA0FLkF2C2v3r3FwB4TsYzFmzUwFysgBBS7kZW0sdbaX89ZzsHRarTQhS9U9WRkUs2pBOVV18tBJ3g+g3EsRcChTpU2y/eYm6MQANAg7Vvfaej/AEbtfPI8SEKfwN9c3Zvb8/sKP1cx4TJSy5wpJFzstrk3W3ZFza7eW/nPWuEfZHRUA4mvUqEexRHUU978u0flJrwfo1gsMLUMPSQ/mCgsdt3Op2HPlPOrwjo30N4hiEUrhqqgsrFq6mkO8SdX7R28JPsB9lTsb4rFNluSKeHXKBcEEF21O51sJ6fKzd/pN83+CPcG6E8Ow2tLDoX/AD1Sar3/AKnJt8JIAJWJgIiICIiAiIgIiICIiAnK43wlay3FhUA0PiPAzqxA8W6YUGUoGBBBca7g9nSRXjLq1FgEC2VtiST4XJ/tPVftawq9RSqgDN1+Qn9JRjr8VnluNw79UWKsFKkAkEAkg7X3llIcPGVWNOkoYqDSBJG5tYW+csHBWvor1SULadlb3tYn1Pwlrt91RNifu2GnvE3MTi3CgK7oGpPcKLM2XmCL7eFtbyK1XohQ2UWsK2oUL3bWvUfbnyl1UA5tRf7+1gah1CHQtZQZSqRc3Av99bO2Y9wE2QXJHK2m3nK17gMSSBap3jk06pT5u1jfXS2vlAvesVOe9iOuIZ2LaHJqFFlt9NJhC3q1QjEVGfUm1gxHs6eE6nDOGYms98Nh6tYjrLZKWVCSqWzVG929xtJfwf7Jca9R6tarSorUqBstjVcaWOxAv8TOvwtWt9t4koBwiiOrqBmtapYudQO1YtlOh/zNqhgzUq5cOtavqvcou5v1j337KgHTyntvCPsx4dRBDo1csbt1x7BO/cGm/jeS7C4OlTXLTREUckVVHoJzn1Xh/B/sx4jWANVaWHBA/HbrnHZT2F03U6aSb8J+yjBpZsRUq4hhyY9Wntewv9RGpnoESDR4ZwfDYdctCjSpKBtTRV+Y1M3oiAiIgIiICIiAiIgIiICIiAiIgIiICIiBD/tTp34ff8uIon1bL/ynkGIqO4sWdjlsASzGwFgANfQT6G4jgKVem1Kqgem1rg+RuPmBMPDuC4agPuaNNPNUGY+9tzA+Yjh3WlTVlYNTaorBlIIOuhB2kj4RwbiFVUOGwpqEowz1FCoh9k3ewOvhrPdU6O4MVmr/APT0jWqNmZ2QMc1gL67HQbTpgQPIOF/ZFXe7YnELTDEkphlBY3TKQXNr8/GTXhH2d8MoEMKC1XBBzYj705gLA2OgNh4SVxAtp01UWUAAcgAB6CXREBERAREQEREBERAREQEREBERAREQEREBERAREQEREBERAREQEREBERAREQEREBERAREQEREBERAREQEREBERAREQEREBERAREQEREBEReAiIgIiICJS8XgViUvF4FYlLysBERAREQEREBERAREQEREBERATW4irGkwQsGI0yWDb8rkD5ibMpA4NDAYjrBVOZW6vCJYVWIIStWNXNcm5yVBuTrsdJYuExTGiagqWpdRmy1gpZhSrpVcZWGhZ6Z13A25SRCIEc4XgcShoqxqhKdGktusDjOoIqZrvqDoQbEj9MzU8FiB1Kk1W+5AqFqptnKnM1w4Ja/LKR7p3YgR3B4PFqKajOuVEHbrZ1GVGDBhcliXswPhYaWtKnBYkvRcBx1aVVqh6oLuWagew9zlByMeW1uzeSGIHJxFPEM+YBwDRslqgAp1u3dqgv2wbpbvbHQc9UYLFFCM1Ve+VBrXfN1QC3YHUdZc2/+SQRA0uHUKihw7MQXBUs2Y2KLff9WfSYqeHrLhilUria1n3RKSvckqpGwFrD4TpRAjacNbLRTqDZahdntQDIesz5UGfsoT4E2AtbWYaXBKg6wtTJuwaw6lgziqzgAEjMlm1zm/htJVECO4PhlRXw4elfqUBNVeruWswFMm4bIAeQN9NrTE3CmOHNMUGUricQ6p9wVtVNSxIzWAGflqDsDJPECMVeDVfvQq3arhmR2qdSA79QtNcjKOsGqi+Y2nU4Bg2pU2VgQDVZlDdXmykL3hT7ANwdF0253nTiAiIgIiICIiAiIgf/2Q==;" vertex="1" parent="xfgPGGNm15GK5k0iS-4h-1">
          <mxGeometry x="660" y="30" width="198.02" height="160" as="geometry" />
        </mxCell>
        <mxCell id="xfgPGGNm15GK5k0iS-4h-9" style="edgeStyle=orthogonalEdgeStyle;rounded=1;sketch=0;orthogonalLoop=1;jettySize=auto;html=1;exitX=0.5;exitY=0;exitDx=0;exitDy=0;entryX=0;entryY=0.344;entryDx=0;entryDy=0;entryPerimeter=0;strokeColor=#457B9D;fillColor=#A8DADC;fontColor=#1D3557;" edge="1" parent="xfgPGGNm15GK5k0iS-4h-1" source="xfgPGGNm15GK5k0iS-4h-8" target="xfgPGGNm15GK5k0iS-4h-7">
          <mxGeometry relative="1" as="geometry" />
        </mxCell>
        <mxCell id="Od_EDGB5A3pjCcA_6AuN-10" style="edgeStyle=orthogonalEdgeStyle;rounded=1;sketch=0;orthogonalLoop=1;jettySize=auto;html=1;exitX=0.5;exitY=1;exitDx=0;exitDy=0;entryX=0.5;entryY=0;entryDx=0;entryDy=0;strokeColor=#457B9D;fillColor=#A8DADC;fontColor=#1D3557;" edge="1" parent="xfgPGGNm15GK5k0iS-4h-1" source="xfgPGGNm15GK5k0iS-4h-8" target="Od_EDGB5A3pjCcA_6AuN-9">
          <mxGeometry relative="1" as="geometry" />
        </mxCell>
        <mxCell id="Od_EDGB5A3pjCcA_6AuN-13" style="edgeStyle=orthogonalEdgeStyle;rounded=1;sketch=0;orthogonalLoop=1;jettySize=auto;html=1;exitX=0.5;exitY=1;exitDx=0;exitDy=0;entryX=0.5;entryY=0;entryDx=0;entryDy=0;strokeColor=#457B9D;fillColor=#A8DADC;fontColor=#1D3557;" edge="1" parent="xfgPGGNm15GK5k0iS-4h-1" source="xfgPGGNm15GK5k0iS-4h-8" target="Od_EDGB5A3pjCcA_6AuN-12">
          <mxGeometry relative="1" as="geometry" />
        </mxCell>
        <mxCell id="xfgPGGNm15GK5k0iS-4h-8" value="&lt;font style=&quot;font-size: 36px&quot;&gt;www.gjecommerce.com&lt;/font&gt;" style="rounded=0;whiteSpace=wrap;html=1;sketch=0;strokeColor=#457B9D;fillColor=#A8DADC;fontColor=#1D3557;" vertex="1" parent="xfgPGGNm15GK5k0iS-4h-1">
          <mxGeometry x="50" y="200" width="510" height="60" as="geometry" />
        </mxCell>
        <mxCell id="Od_EDGB5A3pjCcA_6AuN-0" value="" style="shape=image;verticalLabelPosition=bottom;labelBackgroundColor=#ffffff;verticalAlign=top;aspect=fixed;imageAspect=0;image=data:image/jpeg,/9j/4AAQSkZJRgABAQAAAQABAAD/2wCEAAkGBxATEBUQEhIQFRAQDxAVGBYQEBESFRgQFRUWFxUVFxUYHCggGBomHRUVITEhJikrLi46Fx8zODMtNygtLisBCgoKDg0OGhAQGisfFR0tKy0rLSsrKy0rMi43LS43Ly03MCsrKy0rLSsrKy0rKystKy0rNSstKys3Ny03NysrK//AABEIAMoA+gMBIgACEQEDEQH/xAAcAAEAAQUBAQAAAAAAAAAAAAAABgECAwQFBwj/xAA8EAACAQIEAgcFBwQBBQEAAAABAgADEQQSITEFQQYTIjJRYZFCcYGhsQcjM1JiksFy0eHwwhRDgqLxFv/EABgBAQEBAQEAAAAAAAAAAAAAAAABAgME/8QAHhEBAAMBAQEAAwEAAAAAAAAAAAECERIxAyEyQQT/2gAMAwEAAhEDEQA/APcYiICIiAiIgIiICIiAiIgIiICIiAiIgIiICIiAiIgIiICIiAiIgIiICIiAiIgIiICIiAiIgIiICIiAiIgIiICIiAiIgIiICIiAiIgIiICIiAiIgIiICIiAiIgIiICIiAiIgIiICIiAiIgIiICIiAiIgIiICIiAiIgIiICIlCQIFYmB8XTG7oP/ACEwPxeiPav7gT/EDeicp+O0+SufQfzNd+Pnkg+LX+glyU2HdiRt+NVjtlHuF/qZrvxKsf8AuN8LD6RydJZMb10G7KPeQJEHrOd2Y+9iZjl5TpK34pQH/cX4XP0mu/HKI2zn3Lb6yOSkcnTuVOkI5Uz8WA+kxr0ge+tNbeTG/rOPKS4myk9DjVFtyVP6tvUaToJUBFwQR5G8hErTqMpupIP6SR9JOV6TiJF6HG6y72YfqFj6idLD8epnvAqf3D1EmLrrRMVHEI+qsD7jMsikREBERAREQEREBERAREQIdU4jUzsjVHuGYbkDQ25SxmJ3JPvJMx9IqeXEv4Nlb1Av8wZr0MTybbxm4Yb6qvM+gl1k/UfiBMMXlRmzL+UfG5jrjyAHuAmO8pAsddbg2J9D7xLest3tPPl68pkgwKRLDTt3TbyOo/xKCpyOh89vgYF8SspApKS6UgUiVlIFIlZSABINxofEG03cPxasvtZh4Pr895pSkCQYfpAp76Eea6j0nSw+OpP3XB8tj6GQ2Uk5XU8iQ3D8RrJs5t4N2h850sP0hPtp8UP8H+8zjWpBE0sPxSi+gcA+Ddk/OboMikREBERAREQIf0tt1486a/Uziyd8X4YtdLHRh3W8D/aQfE0HpsUcWIM3EsTC+hiCPdN9WBFxtOVaX0apU3EqOlaLy2lVDDT0l1oCIvEBKESsQMXVkd0/A6j4HlC1Rex0Pgf4POZJRlB0IvASksysO6bjwY/Qyq1AdNj4HQ/5gXREQKRKykCkSs1sXj6NL8SpTT+pgD6bwM8Tg4npZhx3BVqH9KZV/c5HyvOXi+l1b2EpJ5uTUPpoPrJsLkpjMGKxlKmL1HRP6mA+Rnn+J4vXqd6rVI8FtTX5W+s06YF9gCSNbi/xYiTpeU2xHSnDDResqf0JYfuawmj/APuMSv4IVB+pmqf+ossh9bGop7RFgzbsD2RewFtSfPQTUbjFMt2Q7HKF0vbe97Xk1cencC6d4+rWo0WNEipXRWPVEMVJsQLNYe+09UniPQBhVxuFAVLI9RrhbOeyzds31tYAbWnt0ikREBERATn8Y4WtdLbOL5W/g+U6EQPOK9FqbFHFiDLBJzxnha118HA7LfwfKQitRamxRwQQef8Au03E6xMYojEG43nQoVw2nP8A3ac8iAfWVHVlswUMTybfxmzA4HEOI4hCFOVbkgFQLNfbKzaK/kwsfKOHccN8lS7EWF1U51J26ykNVvyYXB30ncq0lYFWAKsLEEXBHmOcrTphRZQAALWAAFhtoIFZSXTRxnFsNS0qVqSnwLgt+0awNu0FR4SO4rpjQH4aVannlFNfV9flOTiel2JbuLSp+4NVPzsvyk1cTi01MXxKhS/Eq01PgXF/Teee4nH4ip+JWqt5Z8o/alhNVEA2sPcAL/GTpeU1xPS/Dr3Fq1PMKEX9zkH5TlYnpbiG/DSkg8Tmqn/iPrI+7qNTYe//ADNWrxmitti1iDYs19bg2vYWGmkk2lch1cVxSu4PWVqpAF7Bggt7ktNNEtqAi357n5f3nIxPHARopJfs6jKPlMNeriCbMwXS+VQWa1jbQf0mRXaqVFGrP8wo/wB+M0qvF6K7an9Iv85zDhQb3LMwzbkk6Z/ZS/NPETao00U2PZW5By5QbdsaAXP5dyNoDE8XcgZabAk2u40+FpZXpVjpUc27NwgsO0dLsbD6zEtXLmUhs1Wq9ueme4JPIWtOhjcQ9yt3CBhpoBmAU97mdDsec6XpFcyd2EaFPCKLG17gasbjUHm1hv75kqAdXYXuaiHRtOr0J5Dw5esq2lybDlcm2x8W1Oh8DvOngOjeMxWT/p8NWcCoczsGSnYK2UhqlgdTy/iSn7Rqpp9k1EHGKw2TC1GO3eLKtxblY/WexyO9EuitLBoCLtXamqu9yQbakKDsLyRR9LdWmQiImAiIgIiICc3jPClrL4VAND/B8p0ogeb1qTIxRgQRca8pS0m3G+ErWW4sKgGh8R4GQqrTZGKsCCDbXkZuJ1iYxaZcvEhTBNQ9hQSTuQALn3zidIuI1KeVUsMwYk2BOltBf3yG9IMTUai+Z3PZ5sfpEyRCd4nppRH4dOrU8yBTX1bX5Tk4npdim7gpUx+lTUb1aw+Uj1BgVU+KL9JixmIQKQzhb+eszstY38Vj61T8WtVYfqfKv7UsJqtZCq2Iz7ZVAFtBcne2s5z9IUQBULHKCLrpowINzubgkTTqcUrsLqmVQO82wAHidALSfkSMhQdWFrm9gTpa4IY6b6WmouLUZwzq1721HZGvh/uk4DUqrntVGY9rs0wX1UgEaacx6SlDCUy707H7t8mZjck25DYfOb+fzte3MenjoNxwBerpqzAbe/6zXfGYltOzTB8bA6mw85k4SiClUD5sivYkd7KGtpaZXKZyaauq3Ghyg36xixJsW1OttBqJmYycVz3w5IzO7NoTqcg7ubdv4E3MJg0udFAW+pViDZmAUM1gSQt7AS1Nuz+XdBf2F9s39biX06dyzDL2AzElmY71dA3je/PS5kGhRrA0FLkF2C2v3r3FwB4TsYzFmzUwFysgBBS7kZW0sdbaX89ZzsHRarTQhS9U9WRkUs2pBOVV18tBJ3g+g3EsRcChTpU2y/eYm6MQANAg7Vvfaej/AEbtfPI8SEKfwN9c3Zvb8/sKP1cx4TJSy5wpJFzstrk3W3ZFza7eW/nPWuEfZHRUA4mvUqEexRHUU978u0flJrwfo1gsMLUMPSQ/mCgsdt3Op2HPlPOrwjo30N4hiEUrhqqgsrFq6mkO8SdX7R28JPsB9lTsb4rFNluSKeHXKBcEEF21O51sJ6fKzd/pN83+CPcG6E8Ow2tLDoX/AD1Sar3/AKnJt8JIAJWJgIiICIiAiIgIiICIiAnK43wlay3FhUA0PiPAzqxA8W6YUGUoGBBBca7g9nSRXjLq1FgEC2VtiST4XJ/tPVftawq9RSqgDN1+Qn9JRjr8VnluNw79UWKsFKkAkEAkg7X3llIcPGVWNOkoYqDSBJG5tYW+csHBWvor1SULadlb3tYn1Pwlrt91RNifu2GnvE3MTi3CgK7oGpPcKLM2XmCL7eFtbyK1XohQ2UWsK2oUL3bWvUfbnyl1UA5tRf7+1gah1CHQtZQZSqRc3Av99bO2Y9wE2QXJHK2m3nK17gMSSBap3jk06pT5u1jfXS2vlAvesVOe9iOuIZ2LaHJqFFlt9NJhC3q1QjEVGfUm1gxHs6eE6nDOGYms98Nh6tYjrLZKWVCSqWzVG929xtJfwf7Jca9R6tarSorUqBstjVcaWOxAv8TOvwtWt9t4koBwiiOrqBmtapYudQO1YtlOh/zNqhgzUq5cOtavqvcou5v1j337KgHTyntvCPsx4dRBDo1csbt1x7BO/cGm/jeS7C4OlTXLTREUckVVHoJzn1Xh/B/sx4jWANVaWHBA/HbrnHZT2F03U6aSb8J+yjBpZsRUq4hhyY9Wntewv9RGpnoESDR4ZwfDYdctCjSpKBtTRV+Y1M3oiAiIgIiICIiAiIgIiICIiAiIgIiICIiBD/tTp34ff8uIon1bL/ynkGIqO4sWdjlsASzGwFgANfQT6G4jgKVem1Kqgem1rg+RuPmBMPDuC4agPuaNNPNUGY+9tzA+Yjh3WlTVlYNTaorBlIIOuhB2kj4RwbiFVUOGwpqEowz1FCoh9k3ewOvhrPdU6O4MVmr/APT0jWqNmZ2QMc1gL67HQbTpgQPIOF/ZFXe7YnELTDEkphlBY3TKQXNr8/GTXhH2d8MoEMKC1XBBzYj705gLA2OgNh4SVxAtp01UWUAAcgAB6CXREBERAREQEREBERAREQEREBERAREQEREBERAREQEREBERAREQEREBERAREQEREBERAREQEREBERAREQEREBERAREQEREBERAREQEREBEReAiIgIiICJS8XgViUvF4FYlLysBERAREQEREBERAREQEREBERATW4irGkwQsGI0yWDb8rkD5ibMpA4NDAYjrBVOZW6vCJYVWIIStWNXNcm5yVBuTrsdJYuExTGiagqWpdRmy1gpZhSrpVcZWGhZ6Z13A25SRCIEc4XgcShoqxqhKdGktusDjOoIqZrvqDoQbEj9MzU8FiB1Kk1W+5AqFqptnKnM1w4Ja/LKR7p3YgR3B4PFqKajOuVEHbrZ1GVGDBhcliXswPhYaWtKnBYkvRcBx1aVVqh6oLuWagew9zlByMeW1uzeSGIHJxFPEM+YBwDRslqgAp1u3dqgv2wbpbvbHQc9UYLFFCM1Ve+VBrXfN1QC3YHUdZc2/+SQRA0uHUKihw7MQXBUs2Y2KLff9WfSYqeHrLhilUria1n3RKSvckqpGwFrD4TpRAjacNbLRTqDZahdntQDIesz5UGfsoT4E2AtbWYaXBKg6wtTJuwaw6lgziqzgAEjMlm1zm/htJVECO4PhlRXw4elfqUBNVeruWswFMm4bIAeQN9NrTE3CmOHNMUGUricQ6p9wVtVNSxIzWAGflqDsDJPECMVeDVfvQq3arhmR2qdSA79QtNcjKOsGqi+Y2nU4Bg2pU2VgQDVZlDdXmykL3hT7ANwdF0253nTiAiIgIiICIiAiIgf/2Q==;" vertex="1" parent="xfgPGGNm15GK5k0iS-4h-1">
          <mxGeometry x="670" y="40" width="198.02" height="160" as="geometry" />
        </mxCell>
        <mxCell id="Od_EDGB5A3pjCcA_6AuN-1" value="" style="shape=image;verticalLabelPosition=bottom;labelBackgroundColor=#ffffff;verticalAlign=top;aspect=fixed;imageAspect=0;image=data:image/jpeg,/9j/4AAQSkZJRgABAQAAAQABAAD/2wCEAAkGBxATEBUQEhIQFRAQDxAVGBYQEBESFRgQFRUWFxUVFxUYHCggGBomHRUVITEhJikrLi46Fx8zODMtNygtLisBCgoKDg0OGhAQGisfFR0tKy0rLSsrKy0rMi43LS43Ly03MCsrKy0rLSsrKy0rKystKy0rNSstKys3Ny03NysrK//AABEIAMoA+gMBIgACEQEDEQH/xAAcAAEAAQUBAQAAAAAAAAAAAAAABgECAwQFBwj/xAA8EAACAQIEAgcFBwQBBQEAAAABAgADEQQSITEFQQYTIjJRYZFCcYGhsQcjM1JiksFy0eHwwhRDgqLxFv/EABgBAQEBAQEAAAAAAAAAAAAAAAABAgME/8QAHhEBAAMBAQEAAwEAAAAAAAAAAAECERIxAyEyQQT/2gAMAwEAAhEDEQA/APcYiICIiAiIgIiICIiAiIgIiICIiAiIgIiICIiAiIgIiICIiAiIgIiICIiAiIgIiICIiAiIgIiICIiAiIgIiICIiAiIgIiICIiAiIgIiICIiAiIgIiICIiAiIgIiICIiAiIgIiICIiAiIgIiICIiAiIgIiICIiAiIgIiICIlCQIFYmB8XTG7oP/ACEwPxeiPav7gT/EDeicp+O0+SufQfzNd+Pnkg+LX+glyU2HdiRt+NVjtlHuF/qZrvxKsf8AuN8LD6RydJZMb10G7KPeQJEHrOd2Y+9iZjl5TpK34pQH/cX4XP0mu/HKI2zn3Lb6yOSkcnTuVOkI5Uz8WA+kxr0ge+tNbeTG/rOPKS4myk9DjVFtyVP6tvUaToJUBFwQR5G8hErTqMpupIP6SR9JOV6TiJF6HG6y72YfqFj6idLD8epnvAqf3D1EmLrrRMVHEI+qsD7jMsikREBERAREQEREBERAREQIdU4jUzsjVHuGYbkDQ25SxmJ3JPvJMx9IqeXEv4Nlb1Av8wZr0MTybbxm4Yb6qvM+gl1k/UfiBMMXlRmzL+UfG5jrjyAHuAmO8pAsddbg2J9D7xLest3tPPl68pkgwKRLDTt3TbyOo/xKCpyOh89vgYF8SspApKS6UgUiVlIFIlZSABINxofEG03cPxasvtZh4Pr895pSkCQYfpAp76Eea6j0nSw+OpP3XB8tj6GQ2Uk5XU8iQ3D8RrJs5t4N2h850sP0hPtp8UP8H+8zjWpBE0sPxSi+gcA+Ddk/OboMikREBERAREQIf0tt1486a/Uziyd8X4YtdLHRh3W8D/aQfE0HpsUcWIM3EsTC+hiCPdN9WBFxtOVaX0apU3EqOlaLy2lVDDT0l1oCIvEBKESsQMXVkd0/A6j4HlC1Rex0Pgf4POZJRlB0IvASksysO6bjwY/Qyq1AdNj4HQ/5gXREQKRKykCkSs1sXj6NL8SpTT+pgD6bwM8Tg4npZhx3BVqH9KZV/c5HyvOXi+l1b2EpJ5uTUPpoPrJsLkpjMGKxlKmL1HRP6mA+Rnn+J4vXqd6rVI8FtTX5W+s06YF9gCSNbi/xYiTpeU2xHSnDDResqf0JYfuawmj/APuMSv4IVB+pmqf+ossh9bGop7RFgzbsD2RewFtSfPQTUbjFMt2Q7HKF0vbe97Xk1cencC6d4+rWo0WNEipXRWPVEMVJsQLNYe+09UniPQBhVxuFAVLI9RrhbOeyzds31tYAbWnt0ikREBERATn8Y4WtdLbOL5W/g+U6EQPOK9FqbFHFiDLBJzxnha118HA7LfwfKQitRamxRwQQef8Au03E6xMYojEG43nQoVw2nP8A3ac8iAfWVHVlswUMTybfxmzA4HEOI4hCFOVbkgFQLNfbKzaK/kwsfKOHccN8lS7EWF1U51J26ykNVvyYXB30ncq0lYFWAKsLEEXBHmOcrTphRZQAALWAAFhtoIFZSXTRxnFsNS0qVqSnwLgt+0awNu0FR4SO4rpjQH4aVannlFNfV9flOTiel2JbuLSp+4NVPzsvyk1cTi01MXxKhS/Eq01PgXF/Teee4nH4ip+JWqt5Z8o/alhNVEA2sPcAL/GTpeU1xPS/Dr3Fq1PMKEX9zkH5TlYnpbiG/DSkg8Tmqn/iPrI+7qNTYe//ADNWrxmitti1iDYs19bg2vYWGmkk2lch1cVxSu4PWVqpAF7Bggt7ktNNEtqAi357n5f3nIxPHARopJfs6jKPlMNeriCbMwXS+VQWa1jbQf0mRXaqVFGrP8wo/wB+M0qvF6K7an9Iv85zDhQb3LMwzbkk6Z/ZS/NPETao00U2PZW5By5QbdsaAXP5dyNoDE8XcgZabAk2u40+FpZXpVjpUc27NwgsO0dLsbD6zEtXLmUhs1Wq9ueme4JPIWtOhjcQ9yt3CBhpoBmAU97mdDsec6XpFcyd2EaFPCKLG17gasbjUHm1hv75kqAdXYXuaiHRtOr0J5Dw5esq2lybDlcm2x8W1Oh8DvOngOjeMxWT/p8NWcCoczsGSnYK2UhqlgdTy/iSn7Rqpp9k1EHGKw2TC1GO3eLKtxblY/WexyO9EuitLBoCLtXamqu9yQbakKDsLyRR9LdWmQiImAiIgIiICc3jPClrL4VAND/B8p0ogeb1qTIxRgQRca8pS0m3G+ErWW4sKgGh8R4GQqrTZGKsCCDbXkZuJ1iYxaZcvEhTBNQ9hQSTuQALn3zidIuI1KeVUsMwYk2BOltBf3yG9IMTUai+Z3PZ5sfpEyRCd4nppRH4dOrU8yBTX1bX5Tk4npdim7gpUx+lTUb1aw+Uj1BgVU+KL9JixmIQKQzhb+eszstY38Vj61T8WtVYfqfKv7UsJqtZCq2Iz7ZVAFtBcne2s5z9IUQBULHKCLrpowINzubgkTTqcUrsLqmVQO82wAHidALSfkSMhQdWFrm9gTpa4IY6b6WmouLUZwzq1721HZGvh/uk4DUqrntVGY9rs0wX1UgEaacx6SlDCUy707H7t8mZjck25DYfOb+fzte3MenjoNxwBerpqzAbe/6zXfGYltOzTB8bA6mw85k4SiClUD5sivYkd7KGtpaZXKZyaauq3Ghyg36xixJsW1OttBqJmYycVz3w5IzO7NoTqcg7ubdv4E3MJg0udFAW+pViDZmAUM1gSQt7AS1Nuz+XdBf2F9s39biX06dyzDL2AzElmY71dA3je/PS5kGhRrA0FLkF2C2v3r3FwB4TsYzFmzUwFysgBBS7kZW0sdbaX89ZzsHRarTQhS9U9WRkUs2pBOVV18tBJ3g+g3EsRcChTpU2y/eYm6MQANAg7Vvfaej/AEbtfPI8SEKfwN9c3Zvb8/sKP1cx4TJSy5wpJFzstrk3W3ZFza7eW/nPWuEfZHRUA4mvUqEexRHUU978u0flJrwfo1gsMLUMPSQ/mCgsdt3Op2HPlPOrwjo30N4hiEUrhqqgsrFq6mkO8SdX7R28JPsB9lTsb4rFNluSKeHXKBcEEF21O51sJ6fKzd/pN83+CPcG6E8Ow2tLDoX/AD1Sar3/AKnJt8JIAJWJgIiICIiAiIgIiICIiAnK43wlay3FhUA0PiPAzqxA8W6YUGUoGBBBca7g9nSRXjLq1FgEC2VtiST4XJ/tPVftawq9RSqgDN1+Qn9JRjr8VnluNw79UWKsFKkAkEAkg7X3llIcPGVWNOkoYqDSBJG5tYW+csHBWvor1SULadlb3tYn1Pwlrt91RNifu2GnvE3MTi3CgK7oGpPcKLM2XmCL7eFtbyK1XohQ2UWsK2oUL3bWvUfbnyl1UA5tRf7+1gah1CHQtZQZSqRc3Av99bO2Y9wE2QXJHK2m3nK17gMSSBap3jk06pT5u1jfXS2vlAvesVOe9iOuIZ2LaHJqFFlt9NJhC3q1QjEVGfUm1gxHs6eE6nDOGYms98Nh6tYjrLZKWVCSqWzVG929xtJfwf7Jca9R6tarSorUqBstjVcaWOxAv8TOvwtWt9t4koBwiiOrqBmtapYudQO1YtlOh/zNqhgzUq5cOtavqvcou5v1j337KgHTyntvCPsx4dRBDo1csbt1x7BO/cGm/jeS7C4OlTXLTREUckVVHoJzn1Xh/B/sx4jWANVaWHBA/HbrnHZT2F03U6aSb8J+yjBpZsRUq4hhyY9Wntewv9RGpnoESDR4ZwfDYdctCjSpKBtTRV+Y1M3oiAiIgIiICIiAiIgIiICIiAiIgIiICIiBD/tTp34ff8uIon1bL/ynkGIqO4sWdjlsASzGwFgANfQT6G4jgKVem1Kqgem1rg+RuPmBMPDuC4agPuaNNPNUGY+9tzA+Yjh3WlTVlYNTaorBlIIOuhB2kj4RwbiFVUOGwpqEowz1FCoh9k3ewOvhrPdU6O4MVmr/APT0jWqNmZ2QMc1gL67HQbTpgQPIOF/ZFXe7YnELTDEkphlBY3TKQXNr8/GTXhH2d8MoEMKC1XBBzYj705gLA2OgNh4SVxAtp01UWUAAcgAB6CXREBERAREQEREBERAREQEREBERAREQEREBERAREQEREBERAREQEREBERAREQEREBERAREQEREBERAREQEREBERAREQEREBERAREQEREBEReAiIgIiICJS8XgViUvF4FYlLysBERAREQEREBERAREQEREBERATW4irGkwQsGI0yWDb8rkD5ibMpA4NDAYjrBVOZW6vCJYVWIIStWNXNcm5yVBuTrsdJYuExTGiagqWpdRmy1gpZhSrpVcZWGhZ6Z13A25SRCIEc4XgcShoqxqhKdGktusDjOoIqZrvqDoQbEj9MzU8FiB1Kk1W+5AqFqptnKnM1w4Ja/LKR7p3YgR3B4PFqKajOuVEHbrZ1GVGDBhcliXswPhYaWtKnBYkvRcBx1aVVqh6oLuWagew9zlByMeW1uzeSGIHJxFPEM+YBwDRslqgAp1u3dqgv2wbpbvbHQc9UYLFFCM1Ve+VBrXfN1QC3YHUdZc2/+SQRA0uHUKihw7MQXBUs2Y2KLff9WfSYqeHrLhilUria1n3RKSvckqpGwFrD4TpRAjacNbLRTqDZahdntQDIesz5UGfsoT4E2AtbWYaXBKg6wtTJuwaw6lgziqzgAEjMlm1zm/htJVECO4PhlRXw4elfqUBNVeruWswFMm4bIAeQN9NrTE3CmOHNMUGUricQ6p9wVtVNSxIzWAGflqDsDJPECMVeDVfvQq3arhmR2qdSA79QtNcjKOsGqi+Y2nU4Bg2pU2VgQDVZlDdXmykL3hT7ANwdF0253nTiAiIgIiICIiAiIgf/2Q==;" vertex="1" parent="xfgPGGNm15GK5k0iS-4h-1">
          <mxGeometry x="680" y="50" width="198.02" height="160" as="geometry" />
        </mxCell>
        <mxCell id="Od_EDGB5A3pjCcA_6AuN-9" value="&lt;span style=&quot;font-size: 24px&quot;&gt;Data Privacy&lt;/span&gt;" style="rounded=0;whiteSpace=wrap;html=1;sketch=0;strokeColor=#82b366;fillColor=#d5e8d4;" vertex="1" parent="xfgPGGNm15GK5k0iS-4h-1">
          <mxGeometry x="-10" y="330" width="190" height="60" as="geometry" />
        </mxCell>
        <mxCell id="Od_EDGB5A3pjCcA_6AuN-12" value="&lt;font style=&quot;font-size: 24px&quot;&gt;Hardware Optimization&lt;/font&gt;" style="rounded=0;whiteSpace=wrap;html=1;sketch=0;strokeColor=#82b366;fillColor=#d5e8d4;" vertex="1" parent="xfgPGGNm15GK5k0iS-4h-1">
          <mxGeometry x="300" y="330" width="300" height="60" as="geometry" />
        </mxCell>
      </root>
    </mxGraphModel>
  </diagram>
  <diagram id="uW-4nseVOUlgWZLqDBWV" name="scaling">
    <mxGraphModel dx="1176" dy="463" grid="1" gridSize="10" guides="1" tooltips="1" connect="1" arrows="1" fold="1" page="1" pageScale="1" pageWidth="827" pageHeight="1169" math="0" shadow="0">
      <root>
        <mxCell id="EOcAMHo80SG5EakUopHZ-0" />
        <mxCell id="EOcAMHo80SG5EakUopHZ-1" parent="EOcAMHo80SG5EakUopHZ-0" />
        <mxCell id="51kOUMd6utaT4Z0OF8V1-0" style="edgeStyle=orthogonalEdgeStyle;rounded=1;sketch=0;orthogonalLoop=1;jettySize=auto;html=1;exitX=0.5;exitY=0;exitDx=0;exitDy=0;entryX=-0.015;entryY=0.388;entryDx=0;entryDy=0;entryPerimeter=0;strokeColor=#457B9D;fillColor=#A8DADC;fontColor=#1D3557;" edge="1" parent="EOcAMHo80SG5EakUopHZ-1" source="EOcAMHo80SG5EakUopHZ-5" target="EOcAMHo80SG5EakUopHZ-6">
          <mxGeometry relative="1" as="geometry" />
        </mxCell>
        <mxCell id="hYzwtFUqBLaF76kW2XA9-3" style="edgeStyle=orthogonalEdgeStyle;rounded=1;sketch=0;orthogonalLoop=1;jettySize=auto;html=1;exitX=1;exitY=0.5;exitDx=0;exitDy=0;entryX=0.25;entryY=0;entryDx=0;entryDy=0;strokeColor=#457B9D;fillColor=#A8DADC;fontColor=#1D3557;" edge="1" parent="EOcAMHo80SG5EakUopHZ-1" source="EOcAMHo80SG5EakUopHZ-5" target="hYzwtFUqBLaF76kW2XA9-2">
          <mxGeometry relative="1" as="geometry" />
        </mxCell>
        <mxCell id="hYzwtFUqBLaF76kW2XA9-4" style="edgeStyle=orthogonalEdgeStyle;rounded=1;sketch=0;orthogonalLoop=1;jettySize=auto;html=1;exitX=0.75;exitY=1;exitDx=0;exitDy=0;strokeColor=#457B9D;fillColor=#A8DADC;fontColor=#1D3557;" edge="1" parent="EOcAMHo80SG5EakUopHZ-1" source="EOcAMHo80SG5EakUopHZ-5">
          <mxGeometry relative="1" as="geometry">
            <mxPoint x="460" y="290" as="targetPoint" />
          </mxGeometry>
        </mxCell>
        <mxCell id="hYzwtFUqBLaF76kW2XA9-5" style="edgeStyle=orthogonalEdgeStyle;rounded=1;sketch=0;orthogonalLoop=1;jettySize=auto;html=1;exitX=0.25;exitY=1;exitDx=0;exitDy=0;entryX=0.667;entryY=-0.012;entryDx=0;entryDy=0;entryPerimeter=0;strokeColor=#457B9D;fillColor=#A8DADC;fontColor=#1D3557;" edge="1" parent="EOcAMHo80SG5EakUopHZ-1" source="EOcAMHo80SG5EakUopHZ-5" target="hYzwtFUqBLaF76kW2XA9-0">
          <mxGeometry relative="1" as="geometry" />
        </mxCell>
        <mxCell id="EOcAMHo80SG5EakUopHZ-5" value="&lt;font style=&quot;font-size: 36px&quot;&gt;www.gjecommerce.com&lt;/font&gt;" style="rounded=0;whiteSpace=wrap;html=1;sketch=0;strokeColor=#457B9D;fillColor=#A8DADC;fontColor=#1D3557;" vertex="1" parent="EOcAMHo80SG5EakUopHZ-1">
          <mxGeometry x="70" y="190" width="510" height="60" as="geometry" />
        </mxCell>
        <mxCell id="EOcAMHo80SG5EakUopHZ-6" value="" style="shape=image;verticalLabelPosition=bottom;labelBackgroundColor=#ffffff;verticalAlign=top;aspect=fixed;imageAspect=0;image=data:image/jpeg,/9j/4AAQSkZJRgABAQAAAQABAAD/2wCEAAkGBxATEBUQEhIQFRAQDxAVGBYQEBESFRgQFRUWFxUVFxUYHCggGBomHRUVITEhJikrLi46Fx8zODMtNygtLisBCgoKDg0OGhAQGisfFR0tKy0rLSsrKy0rMi43LS43Ly03MCsrKy0rLSsrKy0rKystKy0rNSstKys3Ny03NysrK//AABEIAMoA+gMBIgACEQEDEQH/xAAcAAEAAQUBAQAAAAAAAAAAAAAABgECAwQFBwj/xAA8EAACAQIEAgcFBwQBBQEAAAABAgADEQQSITEFQQYTIjJRYZFCcYGhsQcjM1JiksFy0eHwwhRDgqLxFv/EABgBAQEBAQEAAAAAAAAAAAAAAAABAgME/8QAHhEBAAMBAQEAAwEAAAAAAAAAAAECERIxAyEyQQT/2gAMAwEAAhEDEQA/APcYiICIiAiIgIiICIiAiIgIiICIiAiIgIiICIiAiIgIiICIiAiIgIiICIiAiIgIiICIiAiIgIiICIiAiIgIiICIiAiIgIiICIiAiIgIiICIiAiIgIiICIiAiIgIiICIiAiIgIiICIiAiIgIiICIiAiIgIiICIiAiIgIiICIlCQIFYmB8XTG7oP/ACEwPxeiPav7gT/EDeicp+O0+SufQfzNd+Pnkg+LX+glyU2HdiRt+NVjtlHuF/qZrvxKsf8AuN8LD6RydJZMb10G7KPeQJEHrOd2Y+9iZjl5TpK34pQH/cX4XP0mu/HKI2zn3Lb6yOSkcnTuVOkI5Uz8WA+kxr0ge+tNbeTG/rOPKS4myk9DjVFtyVP6tvUaToJUBFwQR5G8hErTqMpupIP6SR9JOV6TiJF6HG6y72YfqFj6idLD8epnvAqf3D1EmLrrRMVHEI+qsD7jMsikREBERAREQEREBERAREQIdU4jUzsjVHuGYbkDQ25SxmJ3JPvJMx9IqeXEv4Nlb1Av8wZr0MTybbxm4Yb6qvM+gl1k/UfiBMMXlRmzL+UfG5jrjyAHuAmO8pAsddbg2J9D7xLest3tPPl68pkgwKRLDTt3TbyOo/xKCpyOh89vgYF8SspApKS6UgUiVlIFIlZSABINxofEG03cPxasvtZh4Pr895pSkCQYfpAp76Eea6j0nSw+OpP3XB8tj6GQ2Uk5XU8iQ3D8RrJs5t4N2h850sP0hPtp8UP8H+8zjWpBE0sPxSi+gcA+Ddk/OboMikREBERAREQIf0tt1486a/Uziyd8X4YtdLHRh3W8D/aQfE0HpsUcWIM3EsTC+hiCPdN9WBFxtOVaX0apU3EqOlaLy2lVDDT0l1oCIvEBKESsQMXVkd0/A6j4HlC1Rex0Pgf4POZJRlB0IvASksysO6bjwY/Qyq1AdNj4HQ/5gXREQKRKykCkSs1sXj6NL8SpTT+pgD6bwM8Tg4npZhx3BVqH9KZV/c5HyvOXi+l1b2EpJ5uTUPpoPrJsLkpjMGKxlKmL1HRP6mA+Rnn+J4vXqd6rVI8FtTX5W+s06YF9gCSNbi/xYiTpeU2xHSnDDResqf0JYfuawmj/APuMSv4IVB+pmqf+ossh9bGop7RFgzbsD2RewFtSfPQTUbjFMt2Q7HKF0vbe97Xk1cencC6d4+rWo0WNEipXRWPVEMVJsQLNYe+09UniPQBhVxuFAVLI9RrhbOeyzds31tYAbWnt0ikREBERATn8Y4WtdLbOL5W/g+U6EQPOK9FqbFHFiDLBJzxnha118HA7LfwfKQitRamxRwQQef8Au03E6xMYojEG43nQoVw2nP8A3ac8iAfWVHVlswUMTybfxmzA4HEOI4hCFOVbkgFQLNfbKzaK/kwsfKOHccN8lS7EWF1U51J26ykNVvyYXB30ncq0lYFWAKsLEEXBHmOcrTphRZQAALWAAFhtoIFZSXTRxnFsNS0qVqSnwLgt+0awNu0FR4SO4rpjQH4aVannlFNfV9flOTiel2JbuLSp+4NVPzsvyk1cTi01MXxKhS/Eq01PgXF/Teee4nH4ip+JWqt5Z8o/alhNVEA2sPcAL/GTpeU1xPS/Dr3Fq1PMKEX9zkH5TlYnpbiG/DSkg8Tmqn/iPrI+7qNTYe//ADNWrxmitti1iDYs19bg2vYWGmkk2lch1cVxSu4PWVqpAF7Bggt7ktNNEtqAi357n5f3nIxPHARopJfs6jKPlMNeriCbMwXS+VQWa1jbQf0mRXaqVFGrP8wo/wB+M0qvF6K7an9Iv85zDhQb3LMwzbkk6Z/ZS/NPETao00U2PZW5By5QbdsaAXP5dyNoDE8XcgZabAk2u40+FpZXpVjpUc27NwgsO0dLsbD6zEtXLmUhs1Wq9ueme4JPIWtOhjcQ9yt3CBhpoBmAU97mdDsec6XpFcyd2EaFPCKLG17gasbjUHm1hv75kqAdXYXuaiHRtOr0J5Dw5esq2lybDlcm2x8W1Oh8DvOngOjeMxWT/p8NWcCoczsGSnYK2UhqlgdTy/iSn7Rqpp9k1EHGKw2TC1GO3eLKtxblY/WexyO9EuitLBoCLtXamqu9yQbakKDsLyRR9LdWmQiImAiIgIiICc3jPClrL4VAND/B8p0ogeb1qTIxRgQRca8pS0m3G+ErWW4sKgGh8R4GQqrTZGKsCCDbXkZuJ1iYxaZcvEhTBNQ9hQSTuQALn3zidIuI1KeVUsMwYk2BOltBf3yG9IMTUai+Z3PZ5sfpEyRCd4nppRH4dOrU8yBTX1bX5Tk4npdim7gpUx+lTUb1aw+Uj1BgVU+KL9JixmIQKQzhb+eszstY38Vj61T8WtVYfqfKv7UsJqtZCq2Iz7ZVAFtBcne2s5z9IUQBULHKCLrpowINzubgkTTqcUrsLqmVQO82wAHidALSfkSMhQdWFrm9gTpa4IY6b6WmouLUZwzq1721HZGvh/uk4DUqrntVGY9rs0wX1UgEaacx6SlDCUy707H7t8mZjck25DYfOb+fzte3MenjoNxwBerpqzAbe/6zXfGYltOzTB8bA6mw85k4SiClUD5sivYkd7KGtpaZXKZyaauq3Ghyg36xixJsW1OttBqJmYycVz3w5IzO7NoTqcg7ubdv4E3MJg0udFAW+pViDZmAUM1gSQt7AS1Nuz+XdBf2F9s39biX06dyzDL2AzElmY71dA3je/PS5kGhRrA0FLkF2C2v3r3FwB4TsYzFmzUwFysgBBS7kZW0sdbaX89ZzsHRarTQhS9U9WRkUs2pBOVV18tBJ3g+g3EsRcChTpU2y/eYm6MQANAg7Vvfaej/AEbtfPI8SEKfwN9c3Zvb8/sKP1cx4TJSy5wpJFzstrk3W3ZFza7eW/nPWuEfZHRUA4mvUqEexRHUU978u0flJrwfo1gsMLUMPSQ/mCgsdt3Op2HPlPOrwjo30N4hiEUrhqqgsrFq6mkO8SdX7R28JPsB9lTsb4rFNluSKeHXKBcEEF21O51sJ6fKzd/pN83+CPcG6E8Ow2tLDoX/AD1Sar3/AKnJt8JIAJWJgIiICIiAiIgIiICIiAnK43wlay3FhUA0PiPAzqxA8W6YUGUoGBBBca7g9nSRXjLq1FgEC2VtiST4XJ/tPVftawq9RSqgDN1+Qn9JRjr8VnluNw79UWKsFKkAkEAkg7X3llIcPGVWNOkoYqDSBJG5tYW+csHBWvor1SULadlb3tYn1Pwlrt91RNifu2GnvE3MTi3CgK7oGpPcKLM2XmCL7eFtbyK1XohQ2UWsK2oUL3bWvUfbnyl1UA5tRf7+1gah1CHQtZQZSqRc3Av99bO2Y9wE2QXJHK2m3nK17gMSSBap3jk06pT5u1jfXS2vlAvesVOe9iOuIZ2LaHJqFFlt9NJhC3q1QjEVGfUm1gxHs6eE6nDOGYms98Nh6tYjrLZKWVCSqWzVG929xtJfwf7Jca9R6tarSorUqBstjVcaWOxAv8TOvwtWt9t4koBwiiOrqBmtapYudQO1YtlOh/zNqhgzUq5cOtavqvcou5v1j337KgHTyntvCPsx4dRBDo1csbt1x7BO/cGm/jeS7C4OlTXLTREUckVVHoJzn1Xh/B/sx4jWANVaWHBA/HbrnHZT2F03U6aSb8J+yjBpZsRUq4hhyY9Wntewv9RGpnoESDR4ZwfDYdctCjSpKBtTRV+Y1M3oiAiIgIiICIiAiIgIiICIiAiIgIiICIiBD/tTp34ff8uIon1bL/ynkGIqO4sWdjlsASzGwFgANfQT6G4jgKVem1Kqgem1rg+RuPmBMPDuC4agPuaNNPNUGY+9tzA+Yjh3WlTVlYNTaorBlIIOuhB2kj4RwbiFVUOGwpqEowz1FCoh9k3ewOvhrPdU6O4MVmr/APT0jWqNmZ2QMc1gL67HQbTpgQPIOF/ZFXe7YnELTDEkphlBY3TKQXNr8/GTXhH2d8MoEMKC1XBBzYj705gLA2OgNh4SVxAtp01UWUAAcgAB6CXREBERAREQEREBERAREQEREBERAREQEREBERAREQEREBERAREQEREBERAREQEREBERAREQEREBERAREQEREBERAREQEREBERAREQEREBEReAiIgIiICJS8XgViUvF4FYlLysBERAREQEREBERAREQEREBERATW4irGkwQsGI0yWDb8rkD5ibMpA4NDAYjrBVOZW6vCJYVWIIStWNXNcm5yVBuTrsdJYuExTGiagqWpdRmy1gpZhSrpVcZWGhZ6Z13A25SRCIEc4XgcShoqxqhKdGktusDjOoIqZrvqDoQbEj9MzU8FiB1Kk1W+5AqFqptnKnM1w4Ja/LKR7p3YgR3B4PFqKajOuVEHbrZ1GVGDBhcliXswPhYaWtKnBYkvRcBx1aVVqh6oLuWagew9zlByMeW1uzeSGIHJxFPEM+YBwDRslqgAp1u3dqgv2wbpbvbHQc9UYLFFCM1Ve+VBrXfN1QC3YHUdZc2/+SQRA0uHUKihw7MQXBUs2Y2KLff9WfSYqeHrLhilUria1n3RKSvckqpGwFrD4TpRAjacNbLRTqDZahdntQDIesz5UGfsoT4E2AtbWYaXBKg6wtTJuwaw6lgziqzgAEjMlm1zm/htJVECO4PhlRXw4elfqUBNVeruWswFMm4bIAeQN9NrTE3CmOHNMUGUricQ6p9wVtVNSxIzWAGflqDsDJPECMVeDVfvQq3arhmR2qdSA79QtNcjKOsGqi+Y2nU4Bg2pU2VgQDVZlDdXmykL3hT7ANwdF0253nTiAiIgIiICIiAiIgf/2Q==;" vertex="1" parent="EOcAMHo80SG5EakUopHZ-1">
          <mxGeometry x="680" y="50" width="198.02" height="160" as="geometry" />
        </mxCell>
        <mxCell id="hYzwtFUqBLaF76kW2XA9-0" value="" style="shape=image;verticalLabelPosition=bottom;labelBackgroundColor=#ffffff;verticalAlign=top;aspect=fixed;imageAspect=0;image=data:image/jpeg,/9j/4AAQSkZJRgABAQAAAQABAAD/2wCEAAkGBxATEBUQEhIQFRAQDxAVGBYQEBESFRgQFRUWFxUVFxUYHCggGBomHRUVITEhJikrLi46Fx8zODMtNygtLisBCgoKDg0OGhAQGisfFR0tKy0rLSsrKy0rMi43LS43Ly03MCsrKy0rLSsrKy0rKystKy0rNSstKys3Ny03NysrK//AABEIAMoA+gMBIgACEQEDEQH/xAAcAAEAAQUBAQAAAAAAAAAAAAAABgECAwQFBwj/xAA8EAACAQIEAgcFBwQBBQEAAAABAgADEQQSITEFQQYTIjJRYZFCcYGhsQcjM1JiksFy0eHwwhRDgqLxFv/EABgBAQEBAQEAAAAAAAAAAAAAAAABAgME/8QAHhEBAAMBAQEAAwEAAAAAAAAAAAECERIxAyEyQQT/2gAMAwEAAhEDEQA/APcYiICIiAiIgIiICIiAiIgIiICIiAiIgIiICIiAiIgIiICIiAiIgIiICIiAiIgIiICIiAiIgIiICIiAiIgIiICIiAiIgIiICIiAiIgIiICIiAiIgIiICIiAiIgIiICIiAiIgIiICIiAiIgIiICIiAiIgIiICIiAiIgIiICIlCQIFYmB8XTG7oP/ACEwPxeiPav7gT/EDeicp+O0+SufQfzNd+Pnkg+LX+glyU2HdiRt+NVjtlHuF/qZrvxKsf8AuN8LD6RydJZMb10G7KPeQJEHrOd2Y+9iZjl5TpK34pQH/cX4XP0mu/HKI2zn3Lb6yOSkcnTuVOkI5Uz8WA+kxr0ge+tNbeTG/rOPKS4myk9DjVFtyVP6tvUaToJUBFwQR5G8hErTqMpupIP6SR9JOV6TiJF6HG6y72YfqFj6idLD8epnvAqf3D1EmLrrRMVHEI+qsD7jMsikREBERAREQEREBERAREQIdU4jUzsjVHuGYbkDQ25SxmJ3JPvJMx9IqeXEv4Nlb1Av8wZr0MTybbxm4Yb6qvM+gl1k/UfiBMMXlRmzL+UfG5jrjyAHuAmO8pAsddbg2J9D7xLest3tPPl68pkgwKRLDTt3TbyOo/xKCpyOh89vgYF8SspApKS6UgUiVlIFIlZSABINxofEG03cPxasvtZh4Pr895pSkCQYfpAp76Eea6j0nSw+OpP3XB8tj6GQ2Uk5XU8iQ3D8RrJs5t4N2h850sP0hPtp8UP8H+8zjWpBE0sPxSi+gcA+Ddk/OboMikREBERAREQIf0tt1486a/Uziyd8X4YtdLHRh3W8D/aQfE0HpsUcWIM3EsTC+hiCPdN9WBFxtOVaX0apU3EqOlaLy2lVDDT0l1oCIvEBKESsQMXVkd0/A6j4HlC1Rex0Pgf4POZJRlB0IvASksysO6bjwY/Qyq1AdNj4HQ/5gXREQKRKykCkSs1sXj6NL8SpTT+pgD6bwM8Tg4npZhx3BVqH9KZV/c5HyvOXi+l1b2EpJ5uTUPpoPrJsLkpjMGKxlKmL1HRP6mA+Rnn+J4vXqd6rVI8FtTX5W+s06YF9gCSNbi/xYiTpeU2xHSnDDResqf0JYfuawmj/APuMSv4IVB+pmqf+ossh9bGop7RFgzbsD2RewFtSfPQTUbjFMt2Q7HKF0vbe97Xk1cencC6d4+rWo0WNEipXRWPVEMVJsQLNYe+09UniPQBhVxuFAVLI9RrhbOeyzds31tYAbWnt0ikREBERATn8Y4WtdLbOL5W/g+U6EQPOK9FqbFHFiDLBJzxnha118HA7LfwfKQitRamxRwQQef8Au03E6xMYojEG43nQoVw2nP8A3ac8iAfWVHVlswUMTybfxmzA4HEOI4hCFOVbkgFQLNfbKzaK/kwsfKOHccN8lS7EWF1U51J26ykNVvyYXB30ncq0lYFWAKsLEEXBHmOcrTphRZQAALWAAFhtoIFZSXTRxnFsNS0qVqSnwLgt+0awNu0FR4SO4rpjQH4aVannlFNfV9flOTiel2JbuLSp+4NVPzsvyk1cTi01MXxKhS/Eq01PgXF/Teee4nH4ip+JWqt5Z8o/alhNVEA2sPcAL/GTpeU1xPS/Dr3Fq1PMKEX9zkH5TlYnpbiG/DSkg8Tmqn/iPrI+7qNTYe//ADNWrxmitti1iDYs19bg2vYWGmkk2lch1cVxSu4PWVqpAF7Bggt7ktNNEtqAi357n5f3nIxPHARopJfs6jKPlMNeriCbMwXS+VQWa1jbQf0mRXaqVFGrP8wo/wB+M0qvF6K7an9Iv85zDhQb3LMwzbkk6Z/ZS/NPETao00U2PZW5By5QbdsaAXP5dyNoDE8XcgZabAk2u40+FpZXpVjpUc27NwgsO0dLsbD6zEtXLmUhs1Wq9ueme4JPIWtOhjcQ9yt3CBhpoBmAU97mdDsec6XpFcyd2EaFPCKLG17gasbjUHm1hv75kqAdXYXuaiHRtOr0J5Dw5esq2lybDlcm2x8W1Oh8DvOngOjeMxWT/p8NWcCoczsGSnYK2UhqlgdTy/iSn7Rqpp9k1EHGKw2TC1GO3eLKtxblY/WexyO9EuitLBoCLtXamqu9yQbakKDsLyRR9LdWmQiImAiIgIiICc3jPClrL4VAND/B8p0ogeb1qTIxRgQRca8pS0m3G+ErWW4sKgGh8R4GQqrTZGKsCCDbXkZuJ1iYxaZcvEhTBNQ9hQSTuQALn3zidIuI1KeVUsMwYk2BOltBf3yG9IMTUai+Z3PZ5sfpEyRCd4nppRH4dOrU8yBTX1bX5Tk4npdim7gpUx+lTUb1aw+Uj1BgVU+KL9JixmIQKQzhb+eszstY38Vj61T8WtVYfqfKv7UsJqtZCq2Iz7ZVAFtBcne2s5z9IUQBULHKCLrpowINzubgkTTqcUrsLqmVQO82wAHidALSfkSMhQdWFrm9gTpa4IY6b6WmouLUZwzq1721HZGvh/uk4DUqrntVGY9rs0wX1UgEaacx6SlDCUy707H7t8mZjck25DYfOb+fzte3MenjoNxwBerpqzAbe/6zXfGYltOzTB8bA6mw85k4SiClUD5sivYkd7KGtpaZXKZyaauq3Ghyg36xixJsW1OttBqJmYycVz3w5IzO7NoTqcg7ubdv4E3MJg0udFAW+pViDZmAUM1gSQt7AS1Nuz+XdBf2F9s39biX06dyzDL2AzElmY71dA3je/PS5kGhRrA0FLkF2C2v3r3FwB4TsYzFmzUwFysgBBS7kZW0sdbaX89ZzsHRarTQhS9U9WRkUs2pBOVV18tBJ3g+g3EsRcChTpU2y/eYm6MQANAg7Vvfaej/AEbtfPI8SEKfwN9c3Zvb8/sKP1cx4TJSy5wpJFzstrk3W3ZFza7eW/nPWuEfZHRUA4mvUqEexRHUU978u0flJrwfo1gsMLUMPSQ/mCgsdt3Op2HPlPOrwjo30N4hiEUrhqqgsrFq6mkO8SdX7R28JPsB9lTsb4rFNluSKeHXKBcEEF21O51sJ6fKzd/pN83+CPcG6E8Ow2tLDoX/AD1Sar3/AKnJt8JIAJWJgIiICIiAiIgIiICIiAnK43wlay3FhUA0PiPAzqxA8W6YUGUoGBBBca7g9nSRXjLq1FgEC2VtiST4XJ/tPVftawq9RSqgDN1+Qn9JRjr8VnluNw79UWKsFKkAkEAkg7X3llIcPGVWNOkoYqDSBJG5tYW+csHBWvor1SULadlb3tYn1Pwlrt91RNifu2GnvE3MTi3CgK7oGpPcKLM2XmCL7eFtbyK1XohQ2UWsK2oUL3bWvUfbnyl1UA5tRf7+1gah1CHQtZQZSqRc3Av99bO2Y9wE2QXJHK2m3nK17gMSSBap3jk06pT5u1jfXS2vlAvesVOe9iOuIZ2LaHJqFFlt9NJhC3q1QjEVGfUm1gxHs6eE6nDOGYms98Nh6tYjrLZKWVCSqWzVG929xtJfwf7Jca9R6tarSorUqBstjVcaWOxAv8TOvwtWt9t4koBwiiOrqBmtapYudQO1YtlOh/zNqhgzUq5cOtavqvcou5v1j337KgHTyntvCPsx4dRBDo1csbt1x7BO/cGm/jeS7C4OlTXLTREUckVVHoJzn1Xh/B/sx4jWANVaWHBA/HbrnHZT2F03U6aSb8J+yjBpZsRUq4hhyY9Wntewv9RGpnoESDR4ZwfDYdctCjSpKBtTRV+Y1M3oiAiIgIiICIiAiIgIiICIiAiIgIiICIiBD/tTp34ff8uIon1bL/ynkGIqO4sWdjlsASzGwFgANfQT6G4jgKVem1Kqgem1rg+RuPmBMPDuC4agPuaNNPNUGY+9tzA+Yjh3WlTVlYNTaorBlIIOuhB2kj4RwbiFVUOGwpqEowz1FCoh9k3ewOvhrPdU6O4MVmr/APT0jWqNmZ2QMc1gL67HQbTpgQPIOF/ZFXe7YnELTDEkphlBY3TKQXNr8/GTXhH2d8MoEMKC1XBBzYj705gLA2OgNh4SVxAtp01UWUAAcgAB6CXREBERAREQEREBERAREQEREBERAREQEREBERAREQEREBERAREQEREBERAREQEREBERAREQEREBERAREQEREBERAREQEREBERAREQEREBEReAiIgIiICJS8XgViUvF4FYlLysBERAREQEREBERAREQEREBERATW4irGkwQsGI0yWDb8rkD5ibMpA4NDAYjrBVOZW6vCJYVWIIStWNXNcm5yVBuTrsdJYuExTGiagqWpdRmy1gpZhSrpVcZWGhZ6Z13A25SRCIEc4XgcShoqxqhKdGktusDjOoIqZrvqDoQbEj9MzU8FiB1Kk1W+5AqFqptnKnM1w4Ja/LKR7p3YgR3B4PFqKajOuVEHbrZ1GVGDBhcliXswPhYaWtKnBYkvRcBx1aVVqh6oLuWagew9zlByMeW1uzeSGIHJxFPEM+YBwDRslqgAp1u3dqgv2wbpbvbHQc9UYLFFCM1Ve+VBrXfN1QC3YHUdZc2/+SQRA0uHUKihw7MQXBUs2Y2KLff9WfSYqeHrLhilUria1n3RKSvckqpGwFrD4TpRAjacNbLRTqDZahdntQDIesz5UGfsoT4E2AtbWYaXBKg6wtTJuwaw6lgziqzgAEjMlm1zm/htJVECO4PhlRXw4elfqUBNVeruWswFMm4bIAeQN9NrTE3CmOHNMUGUricQ6p9wVtVNSxIzWAGflqDsDJPECMVeDVfvQq3arhmR2qdSA79QtNcjKOsGqi+Y2nU4Bg2pU2VgQDVZlDdXmykL3hT7ANwdF0253nTiAiIgIiICIiAiIgf/2Q==;" vertex="1" parent="EOcAMHo80SG5EakUopHZ-1">
          <mxGeometry x="60" y="310" width="198.02" height="160" as="geometry" />
        </mxCell>
        <mxCell id="hYzwtFUqBLaF76kW2XA9-1" value="" style="shape=image;verticalLabelPosition=bottom;labelBackgroundColor=#ffffff;verticalAlign=top;aspect=fixed;imageAspect=0;image=data:image/jpeg,/9j/4AAQSkZJRgABAQAAAQABAAD/2wCEAAkGBxATEBUQEhIQFRAQDxAVGBYQEBESFRgQFRUWFxUVFxUYHCggGBomHRUVITEhJikrLi46Fx8zODMtNygtLisBCgoKDg0OGhAQGisfFR0tKy0rLSsrKy0rMi43LS43Ly03MCsrKy0rLSsrKy0rKystKy0rNSstKys3Ny03NysrK//AABEIAMoA+gMBIgACEQEDEQH/xAAcAAEAAQUBAQAAAAAAAAAAAAAABgECAwQFBwj/xAA8EAACAQIEAgcFBwQBBQEAAAABAgADEQQSITEFQQYTIjJRYZFCcYGhsQcjM1JiksFy0eHwwhRDgqLxFv/EABgBAQEBAQEAAAAAAAAAAAAAAAABAgME/8QAHhEBAAMBAQEAAwEAAAAAAAAAAAECERIxAyEyQQT/2gAMAwEAAhEDEQA/APcYiICIiAiIgIiICIiAiIgIiICIiAiIgIiICIiAiIgIiICIiAiIgIiICIiAiIgIiICIiAiIgIiICIiAiIgIiICIiAiIgIiICIiAiIgIiICIiAiIgIiICIiAiIgIiICIiAiIgIiICIiAiIgIiICIiAiIgIiICIiAiIgIiICIlCQIFYmB8XTG7oP/ACEwPxeiPav7gT/EDeicp+O0+SufQfzNd+Pnkg+LX+glyU2HdiRt+NVjtlHuF/qZrvxKsf8AuN8LD6RydJZMb10G7KPeQJEHrOd2Y+9iZjl5TpK34pQH/cX4XP0mu/HKI2zn3Lb6yOSkcnTuVOkI5Uz8WA+kxr0ge+tNbeTG/rOPKS4myk9DjVFtyVP6tvUaToJUBFwQR5G8hErTqMpupIP6SR9JOV6TiJF6HG6y72YfqFj6idLD8epnvAqf3D1EmLrrRMVHEI+qsD7jMsikREBERAREQEREBERAREQIdU4jUzsjVHuGYbkDQ25SxmJ3JPvJMx9IqeXEv4Nlb1Av8wZr0MTybbxm4Yb6qvM+gl1k/UfiBMMXlRmzL+UfG5jrjyAHuAmO8pAsddbg2J9D7xLest3tPPl68pkgwKRLDTt3TbyOo/xKCpyOh89vgYF8SspApKS6UgUiVlIFIlZSABINxofEG03cPxasvtZh4Pr895pSkCQYfpAp76Eea6j0nSw+OpP3XB8tj6GQ2Uk5XU8iQ3D8RrJs5t4N2h850sP0hPtp8UP8H+8zjWpBE0sPxSi+gcA+Ddk/OboMikREBERAREQIf0tt1486a/Uziyd8X4YtdLHRh3W8D/aQfE0HpsUcWIM3EsTC+hiCPdN9WBFxtOVaX0apU3EqOlaLy2lVDDT0l1oCIvEBKESsQMXVkd0/A6j4HlC1Rex0Pgf4POZJRlB0IvASksysO6bjwY/Qyq1AdNj4HQ/5gXREQKRKykCkSs1sXj6NL8SpTT+pgD6bwM8Tg4npZhx3BVqH9KZV/c5HyvOXi+l1b2EpJ5uTUPpoPrJsLkpjMGKxlKmL1HRP6mA+Rnn+J4vXqd6rVI8FtTX5W+s06YF9gCSNbi/xYiTpeU2xHSnDDResqf0JYfuawmj/APuMSv4IVB+pmqf+ossh9bGop7RFgzbsD2RewFtSfPQTUbjFMt2Q7HKF0vbe97Xk1cencC6d4+rWo0WNEipXRWPVEMVJsQLNYe+09UniPQBhVxuFAVLI9RrhbOeyzds31tYAbWnt0ikREBERATn8Y4WtdLbOL5W/g+U6EQPOK9FqbFHFiDLBJzxnha118HA7LfwfKQitRamxRwQQef8Au03E6xMYojEG43nQoVw2nP8A3ac8iAfWVHVlswUMTybfxmzA4HEOI4hCFOVbkgFQLNfbKzaK/kwsfKOHccN8lS7EWF1U51J26ykNVvyYXB30ncq0lYFWAKsLEEXBHmOcrTphRZQAALWAAFhtoIFZSXTRxnFsNS0qVqSnwLgt+0awNu0FR4SO4rpjQH4aVannlFNfV9flOTiel2JbuLSp+4NVPzsvyk1cTi01MXxKhS/Eq01PgXF/Teee4nH4ip+JWqt5Z8o/alhNVEA2sPcAL/GTpeU1xPS/Dr3Fq1PMKEX9zkH5TlYnpbiG/DSkg8Tmqn/iPrI+7qNTYe//ADNWrxmitti1iDYs19bg2vYWGmkk2lch1cVxSu4PWVqpAF7Bggt7ktNNEtqAi357n5f3nIxPHARopJfs6jKPlMNeriCbMwXS+VQWa1jbQf0mRXaqVFGrP8wo/wB+M0qvF6K7an9Iv85zDhQb3LMwzbkk6Z/ZS/NPETao00U2PZW5By5QbdsaAXP5dyNoDE8XcgZabAk2u40+FpZXpVjpUc27NwgsO0dLsbD6zEtXLmUhs1Wq9ueme4JPIWtOhjcQ9yt3CBhpoBmAU97mdDsec6XpFcyd2EaFPCKLG17gasbjUHm1hv75kqAdXYXuaiHRtOr0J5Dw5esq2lybDlcm2x8W1Oh8DvOngOjeMxWT/p8NWcCoczsGSnYK2UhqlgdTy/iSn7Rqpp9k1EHGKw2TC1GO3eLKtxblY/WexyO9EuitLBoCLtXamqu9yQbakKDsLyRR9LdWmQiImAiIgIiICc3jPClrL4VAND/B8p0ogeb1qTIxRgQRca8pS0m3G+ErWW4sKgGh8R4GQqrTZGKsCCDbXkZuJ1iYxaZcvEhTBNQ9hQSTuQALn3zidIuI1KeVUsMwYk2BOltBf3yG9IMTUai+Z3PZ5sfpEyRCd4nppRH4dOrU8yBTX1bX5Tk4npdim7gpUx+lTUb1aw+Uj1BgVU+KL9JixmIQKQzhb+eszstY38Vj61T8WtVYfqfKv7UsJqtZCq2Iz7ZVAFtBcne2s5z9IUQBULHKCLrpowINzubgkTTqcUrsLqmVQO82wAHidALSfkSMhQdWFrm9gTpa4IY6b6WmouLUZwzq1721HZGvh/uk4DUqrntVGY9rs0wX1UgEaacx6SlDCUy707H7t8mZjck25DYfOb+fzte3MenjoNxwBerpqzAbe/6zXfGYltOzTB8bA6mw85k4SiClUD5sivYkd7KGtpaZXKZyaauq3Ghyg36xixJsW1OttBqJmYycVz3w5IzO7NoTqcg7ubdv4E3MJg0udFAW+pViDZmAUM1gSQt7AS1Nuz+XdBf2F9s39biX06dyzDL2AzElmY71dA3je/PS5kGhRrA0FLkF2C2v3r3FwB4TsYzFmzUwFysgBBS7kZW0sdbaX89ZzsHRarTQhS9U9WRkUs2pBOVV18tBJ3g+g3EsRcChTpU2y/eYm6MQANAg7Vvfaej/AEbtfPI8SEKfwN9c3Zvb8/sKP1cx4TJSy5wpJFzstrk3W3ZFza7eW/nPWuEfZHRUA4mvUqEexRHUU978u0flJrwfo1gsMLUMPSQ/mCgsdt3Op2HPlPOrwjo30N4hiEUrhqqgsrFq6mkO8SdX7R28JPsB9lTsb4rFNluSKeHXKBcEEF21O51sJ6fKzd/pN83+CPcG6E8Ow2tLDoX/AD1Sar3/AKnJt8JIAJWJgIiICIiAiIgIiICIiAnK43wlay3FhUA0PiPAzqxA8W6YUGUoGBBBca7g9nSRXjLq1FgEC2VtiST4XJ/tPVftawq9RSqgDN1+Qn9JRjr8VnluNw79UWKsFKkAkEAkg7X3llIcPGVWNOkoYqDSBJG5tYW+csHBWvor1SULadlb3tYn1Pwlrt91RNifu2GnvE3MTi3CgK7oGpPcKLM2XmCL7eFtbyK1XohQ2UWsK2oUL3bWvUfbnyl1UA5tRf7+1gah1CHQtZQZSqRc3Av99bO2Y9wE2QXJHK2m3nK17gMSSBap3jk06pT5u1jfXS2vlAvesVOe9iOuIZ2LaHJqFFlt9NJhC3q1QjEVGfUm1gxHs6eE6nDOGYms98Nh6tYjrLZKWVCSqWzVG929xtJfwf7Jca9R6tarSorUqBstjVcaWOxAv8TOvwtWt9t4koBwiiOrqBmtapYudQO1YtlOh/zNqhgzUq5cOtavqvcou5v1j337KgHTyntvCPsx4dRBDo1csbt1x7BO/cGm/jeS7C4OlTXLTREUckVVHoJzn1Xh/B/sx4jWANVaWHBA/HbrnHZT2F03U6aSb8J+yjBpZsRUq4hhyY9Wntewv9RGpnoESDR4ZwfDYdctCjSpKBtTRV+Y1M3oiAiIgIiICIiAiIgIiICIiAiIgIiICIiBD/tTp34ff8uIon1bL/ynkGIqO4sWdjlsASzGwFgANfQT6G4jgKVem1Kqgem1rg+RuPmBMPDuC4agPuaNNPNUGY+9tzA+Yjh3WlTVlYNTaorBlIIOuhB2kj4RwbiFVUOGwpqEowz1FCoh9k3ewOvhrPdU6O4MVmr/APT0jWqNmZ2QMc1gL67HQbTpgQPIOF/ZFXe7YnELTDEkphlBY3TKQXNr8/GTXhH2d8MoEMKC1XBBzYj705gLA2OgNh4SVxAtp01UWUAAcgAB6CXREBERAREQEREBERAREQEREBERAREQEREBERAREQEREBERAREQEREBERAREQEREBERAREQEREBERAREQEREBERAREQEREBERAREQEREBEReAiIgIiICJS8XgViUvF4FYlLysBERAREQEREBERAREQEREBERATW4irGkwQsGI0yWDb8rkD5ibMpA4NDAYjrBVOZW6vCJYVWIIStWNXNcm5yVBuTrsdJYuExTGiagqWpdRmy1gpZhSrpVcZWGhZ6Z13A25SRCIEc4XgcShoqxqhKdGktusDjOoIqZrvqDoQbEj9MzU8FiB1Kk1W+5AqFqptnKnM1w4Ja/LKR7p3YgR3B4PFqKajOuVEHbrZ1GVGDBhcliXswPhYaWtKnBYkvRcBx1aVVqh6oLuWagew9zlByMeW1uzeSGIHJxFPEM+YBwDRslqgAp1u3dqgv2wbpbvbHQc9UYLFFCM1Ve+VBrXfN1QC3YHUdZc2/+SQRA0uHUKihw7MQXBUs2Y2KLff9WfSYqeHrLhilUria1n3RKSvckqpGwFrD4TpRAjacNbLRTqDZahdntQDIesz5UGfsoT4E2AtbWYaXBKg6wtTJuwaw6lgziqzgAEjMlm1zm/htJVECO4PhlRXw4elfqUBNVeruWswFMm4bIAeQN9NrTE3CmOHNMUGUricQ6p9wVtVNSxIzWAGflqDsDJPECMVeDVfvQq3arhmR2qdSA79QtNcjKOsGqi+Y2nU4Bg2pU2VgQDVZlDdXmykL3hT7ANwdF0253nTiAiIgIiICIiAiIgf/2Q==;" vertex="1" parent="EOcAMHo80SG5EakUopHZ-1">
          <mxGeometry x="361.98" y="300" width="198.02" height="160" as="geometry" />
        </mxCell>
        <mxCell id="hYzwtFUqBLaF76kW2XA9-2" value="" style="shape=image;verticalLabelPosition=bottom;labelBackgroundColor=#ffffff;verticalAlign=top;aspect=fixed;imageAspect=0;image=data:image/jpeg,/9j/4AAQSkZJRgABAQAAAQABAAD/2wCEAAkGBxATEBUQEhIQFRAQDxAVGBYQEBESFRgQFRUWFxUVFxUYHCggGBomHRUVITEhJikrLi46Fx8zODMtNygtLisBCgoKDg0OGhAQGisfFR0tKy0rLSsrKy0rMi43LS43Ly03MCsrKy0rLSsrKy0rKystKy0rNSstKys3Ny03NysrK//AABEIAMoA+gMBIgACEQEDEQH/xAAcAAEAAQUBAQAAAAAAAAAAAAAABgECAwQFBwj/xAA8EAACAQIEAgcFBwQBBQEAAAABAgADEQQSITEFQQYTIjJRYZFCcYGhsQcjM1JiksFy0eHwwhRDgqLxFv/EABgBAQEBAQEAAAAAAAAAAAAAAAABAgME/8QAHhEBAAMBAQEAAwEAAAAAAAAAAAECERIxAyEyQQT/2gAMAwEAAhEDEQA/APcYiICIiAiIgIiICIiAiIgIiICIiAiIgIiICIiAiIgIiICIiAiIgIiICIiAiIgIiICIiAiIgIiICIiAiIgIiICIiAiIgIiICIiAiIgIiICIiAiIgIiICIiAiIgIiICIiAiIgIiICIiAiIgIiICIiAiIgIiICIiAiIgIiICIlCQIFYmB8XTG7oP/ACEwPxeiPav7gT/EDeicp+O0+SufQfzNd+Pnkg+LX+glyU2HdiRt+NVjtlHuF/qZrvxKsf8AuN8LD6RydJZMb10G7KPeQJEHrOd2Y+9iZjl5TpK34pQH/cX4XP0mu/HKI2zn3Lb6yOSkcnTuVOkI5Uz8WA+kxr0ge+tNbeTG/rOPKS4myk9DjVFtyVP6tvUaToJUBFwQR5G8hErTqMpupIP6SR9JOV6TiJF6HG6y72YfqFj6idLD8epnvAqf3D1EmLrrRMVHEI+qsD7jMsikREBERAREQEREBERAREQIdU4jUzsjVHuGYbkDQ25SxmJ3JPvJMx9IqeXEv4Nlb1Av8wZr0MTybbxm4Yb6qvM+gl1k/UfiBMMXlRmzL+UfG5jrjyAHuAmO8pAsddbg2J9D7xLest3tPPl68pkgwKRLDTt3TbyOo/xKCpyOh89vgYF8SspApKS6UgUiVlIFIlZSABINxofEG03cPxasvtZh4Pr895pSkCQYfpAp76Eea6j0nSw+OpP3XB8tj6GQ2Uk5XU8iQ3D8RrJs5t4N2h850sP0hPtp8UP8H+8zjWpBE0sPxSi+gcA+Ddk/OboMikREBERAREQIf0tt1486a/Uziyd8X4YtdLHRh3W8D/aQfE0HpsUcWIM3EsTC+hiCPdN9WBFxtOVaX0apU3EqOlaLy2lVDDT0l1oCIvEBKESsQMXVkd0/A6j4HlC1Rex0Pgf4POZJRlB0IvASksysO6bjwY/Qyq1AdNj4HQ/5gXREQKRKykCkSs1sXj6NL8SpTT+pgD6bwM8Tg4npZhx3BVqH9KZV/c5HyvOXi+l1b2EpJ5uTUPpoPrJsLkpjMGKxlKmL1HRP6mA+Rnn+J4vXqd6rVI8FtTX5W+s06YF9gCSNbi/xYiTpeU2xHSnDDResqf0JYfuawmj/APuMSv4IVB+pmqf+ossh9bGop7RFgzbsD2RewFtSfPQTUbjFMt2Q7HKF0vbe97Xk1cencC6d4+rWo0WNEipXRWPVEMVJsQLNYe+09UniPQBhVxuFAVLI9RrhbOeyzds31tYAbWnt0ikREBERATn8Y4WtdLbOL5W/g+U6EQPOK9FqbFHFiDLBJzxnha118HA7LfwfKQitRamxRwQQef8Au03E6xMYojEG43nQoVw2nP8A3ac8iAfWVHVlswUMTybfxmzA4HEOI4hCFOVbkgFQLNfbKzaK/kwsfKOHccN8lS7EWF1U51J26ykNVvyYXB30ncq0lYFWAKsLEEXBHmOcrTphRZQAALWAAFhtoIFZSXTRxnFsNS0qVqSnwLgt+0awNu0FR4SO4rpjQH4aVannlFNfV9flOTiel2JbuLSp+4NVPzsvyk1cTi01MXxKhS/Eq01PgXF/Teee4nH4ip+JWqt5Z8o/alhNVEA2sPcAL/GTpeU1xPS/Dr3Fq1PMKEX9zkH5TlYnpbiG/DSkg8Tmqn/iPrI+7qNTYe//ADNWrxmitti1iDYs19bg2vYWGmkk2lch1cVxSu4PWVqpAF7Bggt7ktNNEtqAi357n5f3nIxPHARopJfs6jKPlMNeriCbMwXS+VQWa1jbQf0mRXaqVFGrP8wo/wB+M0qvF6K7an9Iv85zDhQb3LMwzbkk6Z/ZS/NPETao00U2PZW5By5QbdsaAXP5dyNoDE8XcgZabAk2u40+FpZXpVjpUc27NwgsO0dLsbD6zEtXLmUhs1Wq9ueme4JPIWtOhjcQ9yt3CBhpoBmAU97mdDsec6XpFcyd2EaFPCKLG17gasbjUHm1hv75kqAdXYXuaiHRtOr0J5Dw5esq2lybDlcm2x8W1Oh8DvOngOjeMxWT/p8NWcCoczsGSnYK2UhqlgdTy/iSn7Rqpp9k1EHGKw2TC1GO3eLKtxblY/WexyO9EuitLBoCLtXamqu9yQbakKDsLyRR9LdWmQiImAiIgIiICc3jPClrL4VAND/B8p0ogeb1qTIxRgQRca8pS0m3G+ErWW4sKgGh8R4GQqrTZGKsCCDbXkZuJ1iYxaZcvEhTBNQ9hQSTuQALn3zidIuI1KeVUsMwYk2BOltBf3yG9IMTUai+Z3PZ5sfpEyRCd4nppRH4dOrU8yBTX1bX5Tk4npdim7gpUx+lTUb1aw+Uj1BgVU+KL9JixmIQKQzhb+eszstY38Vj61T8WtVYfqfKv7UsJqtZCq2Iz7ZVAFtBcne2s5z9IUQBULHKCLrpowINzubgkTTqcUrsLqmVQO82wAHidALSfkSMhQdWFrm9gTpa4IY6b6WmouLUZwzq1721HZGvh/uk4DUqrntVGY9rs0wX1UgEaacx6SlDCUy707H7t8mZjck25DYfOb+fzte3MenjoNxwBerpqzAbe/6zXfGYltOzTB8bA6mw85k4SiClUD5sivYkd7KGtpaZXKZyaauq3Ghyg36xixJsW1OttBqJmYycVz3w5IzO7NoTqcg7ubdv4E3MJg0udFAW+pViDZmAUM1gSQt7AS1Nuz+XdBf2F9s39biX06dyzDL2AzElmY71dA3je/PS5kGhRrA0FLkF2C2v3r3FwB4TsYzFmzUwFysgBBS7kZW0sdbaX89ZzsHRarTQhS9U9WRkUs2pBOVV18tBJ3g+g3EsRcChTpU2y/eYm6MQANAg7Vvfaej/AEbtfPI8SEKfwN9c3Zvb8/sKP1cx4TJSy5wpJFzstrk3W3ZFza7eW/nPWuEfZHRUA4mvUqEexRHUU978u0flJrwfo1gsMLUMPSQ/mCgsdt3Op2HPlPOrwjo30N4hiEUrhqqgsrFq6mkO8SdX7R28JPsB9lTsb4rFNluSKeHXKBcEEF21O51sJ6fKzd/pN83+CPcG6E8Ow2tLDoX/AD1Sar3/AKnJt8JIAJWJgIiICIiAiIgIiICIiAnK43wlay3FhUA0PiPAzqxA8W6YUGUoGBBBca7g9nSRXjLq1FgEC2VtiST4XJ/tPVftawq9RSqgDN1+Qn9JRjr8VnluNw79UWKsFKkAkEAkg7X3llIcPGVWNOkoYqDSBJG5tYW+csHBWvor1SULadlb3tYn1Pwlrt91RNifu2GnvE3MTi3CgK7oGpPcKLM2XmCL7eFtbyK1XohQ2UWsK2oUL3bWvUfbnyl1UA5tRf7+1gah1CHQtZQZSqRc3Av99bO2Y9wE2QXJHK2m3nK17gMSSBap3jk06pT5u1jfXS2vlAvesVOe9iOuIZ2LaHJqFFlt9NJhC3q1QjEVGfUm1gxHs6eE6nDOGYms98Nh6tYjrLZKWVCSqWzVG929xtJfwf7Jca9R6tarSorUqBstjVcaWOxAv8TOvwtWt9t4koBwiiOrqBmtapYudQO1YtlOh/zNqhgzUq5cOtavqvcou5v1j337KgHTyntvCPsx4dRBDo1csbt1x7BO/cGm/jeS7C4OlTXLTREUckVVHoJzn1Xh/B/sx4jWANVaWHBA/HbrnHZT2F03U6aSb8J+yjBpZsRUq4hhyY9Wntewv9RGpnoESDR4ZwfDYdctCjSpKBtTRV+Y1M3oiAiIgIiICIiAiIgIiICIiAiIgIiICIiBD/tTp34ff8uIon1bL/ynkGIqO4sWdjlsASzGwFgANfQT6G4jgKVem1Kqgem1rg+RuPmBMPDuC4agPuaNNPNUGY+9tzA+Yjh3WlTVlYNTaorBlIIOuhB2kj4RwbiFVUOGwpqEowz1FCoh9k3ewOvhrPdU6O4MVmr/APT0jWqNmZ2QMc1gL67HQbTpgQPIOF/ZFXe7YnELTDEkphlBY3TKQXNr8/GTXhH2d8MoEMKC1XBBzYj705gLA2OgNh4SVxAtp01UWUAAcgAB6CXREBERAREQEREBERAREQEREBERAREQEREBERAREQEREBERAREQEREBERAREQEREBERAREQEREBERAREQEREBERAREQEREBERAREQEREBEReAiIgIiICJS8XgViUvF4FYlLysBERAREQEREBERAREQEREBERATW4irGkwQsGI0yWDb8rkD5ibMpA4NDAYjrBVOZW6vCJYVWIIStWNXNcm5yVBuTrsdJYuExTGiagqWpdRmy1gpZhSrpVcZWGhZ6Z13A25SRCIEc4XgcShoqxqhKdGktusDjOoIqZrvqDoQbEj9MzU8FiB1Kk1W+5AqFqptnKnM1w4Ja/LKR7p3YgR3B4PFqKajOuVEHbrZ1GVGDBhcliXswPhYaWtKnBYkvRcBx1aVVqh6oLuWagew9zlByMeW1uzeSGIHJxFPEM+YBwDRslqgAp1u3dqgv2wbpbvbHQc9UYLFFCM1Ve+VBrXfN1QC3YHUdZc2/+SQRA0uHUKihw7MQXBUs2Y2KLff9WfSYqeHrLhilUria1n3RKSvckqpGwFrD4TpRAjacNbLRTqDZahdntQDIesz5UGfsoT4E2AtbWYaXBKg6wtTJuwaw6lgziqzgAEjMlm1zm/htJVECO4PhlRXw4elfqUBNVeruWswFMm4bIAeQN9NrTE3CmOHNMUGUricQ6p9wVtVNSxIzWAGflqDsDJPECMVeDVfvQq3arhmR2qdSA79QtNcjKOsGqi+Y2nU4Bg2pU2VgQDVZlDdXmykL3hT7ANwdF0253nTiAiIgIiICIiAiIgf/2Q==;" vertex="1" parent="EOcAMHo80SG5EakUopHZ-1">
          <mxGeometry x="790" y="280" width="198.02" height="160" as="geometry" />
        </mxCell>
      </root>
    </mxGraphModel>
  </diagram>
  <diagram id="nhsTZU_453mnZp79r4oc" name="Page-6">
    <mxGraphModel dx="2003" dy="463" grid="1" gridSize="10" guides="1" tooltips="1" connect="1" arrows="1" fold="1" page="1" pageScale="1" pageWidth="827" pageHeight="1169" math="0" shadow="0">
      <root>
        <mxCell id="BUcInuB_42sHZHOCIRIg-0" />
        <mxCell id="BUcInuB_42sHZHOCIRIg-1" parent="BUcInuB_42sHZHOCIRIg-0" />
        <mxCell id="em5YsBIxxrZJyTwNETFe-1" style="edgeStyle=orthogonalEdgeStyle;rounded=1;sketch=0;orthogonalLoop=1;jettySize=auto;html=1;exitX=0.5;exitY=1;exitDx=0;exitDy=0;strokeColor=#457B9D;fillColor=#A8DADC;fontColor=#1D3557;entryX=0.5;entryY=0;entryDx=0;entryDy=0;" edge="1" parent="BUcInuB_42sHZHOCIRIg-1" source="em5YsBIxxrZJyTwNETFe-0" target="3i0ZuR3d-BTvdgi-IAgV-0">
          <mxGeometry relative="1" as="geometry">
            <mxPoint x="900" y="150" as="targetPoint" />
          </mxGeometry>
        </mxCell>
        <mxCell id="0Fqlxve4qaUdxVVpvuid-0" style="edgeStyle=orthogonalEdgeStyle;rounded=1;sketch=0;orthogonalLoop=1;jettySize=auto;html=1;exitX=0.5;exitY=1;exitDx=0;exitDy=0;strokeColor=#457B9D;fillColor=#A8DADC;fontColor=#1D3557;entryX=0.5;entryY=0;entryDx=0;entryDy=0;" edge="1" parent="BUcInuB_42sHZHOCIRIg-1" source="em5YsBIxxrZJyTwNETFe-0" target="0Fqlxve4qaUdxVVpvuid-1">
          <mxGeometry relative="1" as="geometry">
            <mxPoint x="10" y="150" as="targetPoint" />
          </mxGeometry>
        </mxCell>
        <mxCell id="em5YsBIxxrZJyTwNETFe-0" value="&lt;font style=&quot;font-size: 48px&quot;&gt;Bare metal Server&lt;/font&gt;" style="rounded=0;whiteSpace=wrap;html=1;sketch=0;strokeColor=#457B9D;fillColor=#A8DADC;fontColor=#1D3557;" vertex="1" parent="BUcInuB_42sHZHOCIRIg-1">
          <mxGeometry x="230" y="10" width="470" height="60" as="geometry" />
        </mxCell>
        <mxCell id="0Fqlxve4qaUdxVVpvuid-2" style="edgeStyle=orthogonalEdgeStyle;rounded=1;sketch=0;orthogonalLoop=1;jettySize=auto;html=1;exitX=0.5;exitY=1;exitDx=0;exitDy=0;strokeColor=#457B9D;fillColor=#A8DADC;fontColor=#1D3557;" edge="1" parent="BUcInuB_42sHZHOCIRIg-1" source="0Fqlxve4qaUdxVVpvuid-1">
          <mxGeometry relative="1" as="geometry">
            <mxPoint x="-40" y="290" as="targetPoint" />
          </mxGeometry>
        </mxCell>
        <mxCell id="0Fqlxve4qaUdxVVpvuid-4" style="edgeStyle=orthogonalEdgeStyle;rounded=1;sketch=0;orthogonalLoop=1;jettySize=auto;html=1;exitX=0.5;exitY=1;exitDx=0;exitDy=0;strokeColor=#457B9D;fillColor=#A8DADC;fontColor=#1D3557;" edge="1" parent="BUcInuB_42sHZHOCIRIg-1" source="0Fqlxve4qaUdxVVpvuid-1">
          <mxGeometry relative="1" as="geometry">
            <mxPoint x="260" y="290" as="targetPoint" />
          </mxGeometry>
        </mxCell>
        <mxCell id="0Fqlxve4qaUdxVVpvuid-1" value="&lt;span style=&quot;font-size: 24px&quot;&gt;PROS&lt;/span&gt;" style="rounded=0;whiteSpace=wrap;html=1;sketch=0;strokeColor=#82b366;fillColor=#d5e8d4;" vertex="1" parent="BUcInuB_42sHZHOCIRIg-1">
          <mxGeometry x="10" y="150" width="190" height="60" as="geometry" />
        </mxCell>
        <mxCell id="0Fqlxve4qaUdxVVpvuid-3" value="&lt;span style=&quot;font-size: 24px&quot;&gt;Data Privacy&lt;/span&gt;" style="rounded=0;whiteSpace=wrap;html=1;sketch=0;strokeColor=#82b366;fillColor=#d5e8d4;" vertex="1" parent="BUcInuB_42sHZHOCIRIg-1">
          <mxGeometry x="-90" y="290" width="190" height="60" as="geometry" />
        </mxCell>
        <mxCell id="0Fqlxve4qaUdxVVpvuid-5" value="&lt;span style=&quot;font-size: 24px&quot;&gt;Hardware Optimization&lt;/span&gt;" style="rounded=0;whiteSpace=wrap;html=1;sketch=0;strokeColor=#82b366;fillColor=#d5e8d4;" vertex="1" parent="BUcInuB_42sHZHOCIRIg-1">
          <mxGeometry x="140" y="290" width="290" height="60" as="geometry" />
        </mxCell>
        <mxCell id="RUGPzeS4FUhRIcLk_c25-2" style="edgeStyle=orthogonalEdgeStyle;rounded=1;sketch=0;orthogonalLoop=1;jettySize=auto;html=1;exitX=0.5;exitY=1;exitDx=0;exitDy=0;strokeColor=#457B9D;fillColor=#A8DADC;fontColor=#1D3557;" edge="1" parent="BUcInuB_42sHZHOCIRIg-1" source="3i0ZuR3d-BTvdgi-IAgV-0">
          <mxGeometry relative="1" as="geometry">
            <mxPoint x="820" y="290" as="targetPoint" />
          </mxGeometry>
        </mxCell>
        <mxCell id="RUGPzeS4FUhRIcLk_c25-5" style="edgeStyle=orthogonalEdgeStyle;rounded=1;sketch=0;orthogonalLoop=1;jettySize=auto;html=1;exitX=0.5;exitY=1;exitDx=0;exitDy=0;strokeColor=#457B9D;fillColor=#A8DADC;fontColor=#1D3557;" edge="1" parent="BUcInuB_42sHZHOCIRIg-1" source="3i0ZuR3d-BTvdgi-IAgV-0">
          <mxGeometry relative="1" as="geometry">
            <mxPoint x="1040" y="290" as="targetPoint" />
          </mxGeometry>
        </mxCell>
        <mxCell id="RUGPzeS4FUhRIcLk_c25-7" style="edgeStyle=orthogonalEdgeStyle;rounded=1;sketch=0;orthogonalLoop=1;jettySize=auto;html=1;exitX=0.5;exitY=1;exitDx=0;exitDy=0;strokeColor=#457B9D;fillColor=#A8DADC;fontColor=#1D3557;" edge="1" parent="BUcInuB_42sHZHOCIRIg-1" source="3i0ZuR3d-BTvdgi-IAgV-0">
          <mxGeometry relative="1" as="geometry">
            <mxPoint x="1370" y="290" as="targetPoint" />
          </mxGeometry>
        </mxCell>
        <mxCell id="RUGPzeS4FUhRIcLk_c25-9" style="edgeStyle=orthogonalEdgeStyle;rounded=1;sketch=0;orthogonalLoop=1;jettySize=auto;html=1;exitX=0.5;exitY=1;exitDx=0;exitDy=0;entryX=0.5;entryY=0;entryDx=0;entryDy=0;strokeColor=#457B9D;fillColor=#A8DADC;fontColor=#1D3557;" edge="1" parent="BUcInuB_42sHZHOCIRIg-1" source="3i0ZuR3d-BTvdgi-IAgV-0" target="RUGPzeS4FUhRIcLk_c25-1">
          <mxGeometry relative="1" as="geometry" />
        </mxCell>
        <mxCell id="RUGPzeS4FUhRIcLk_c25-12" style="edgeStyle=orthogonalEdgeStyle;rounded=1;sketch=0;orthogonalLoop=1;jettySize=auto;html=1;exitX=0.5;exitY=1;exitDx=0;exitDy=0;strokeColor=#457B9D;fillColor=#A8DADC;fontColor=#1D3557;" edge="1" parent="BUcInuB_42sHZHOCIRIg-1" source="3i0ZuR3d-BTvdgi-IAgV-0">
          <mxGeometry relative="1" as="geometry">
            <mxPoint x="1670" y="290" as="targetPoint" />
          </mxGeometry>
        </mxCell>
        <mxCell id="RUGPzeS4FUhRIcLk_c25-14" style="edgeStyle=orthogonalEdgeStyle;rounded=1;sketch=0;orthogonalLoop=1;jettySize=auto;html=1;exitX=0.5;exitY=1;exitDx=0;exitDy=0;strokeColor=#457B9D;fillColor=#A8DADC;fontColor=#1D3557;" edge="1" parent="BUcInuB_42sHZHOCIRIg-1" source="3i0ZuR3d-BTvdgi-IAgV-0">
          <mxGeometry relative="1" as="geometry">
            <mxPoint x="1880" y="290" as="targetPoint" />
          </mxGeometry>
        </mxCell>
        <mxCell id="3i0ZuR3d-BTvdgi-IAgV-0" value="&lt;font style=&quot;font-size: 24px&quot;&gt;CONS&lt;/font&gt;" style="rounded=0;whiteSpace=wrap;html=1;sketch=0;strokeColor=#b85450;fillColor=#f8cecc;" vertex="1" parent="BUcInuB_42sHZHOCIRIg-1">
          <mxGeometry x="670" y="150" width="180" height="60" as="geometry" />
        </mxCell>
        <mxCell id="RUGPzeS4FUhRIcLk_c25-1" value="&lt;span style=&quot;font-size: 24px&quot;&gt;HEATING ISSUE&lt;/span&gt;" style="rounded=0;whiteSpace=wrap;html=1;sketch=0;strokeColor=#b85450;fillColor=#f8cecc;" vertex="1" parent="BUcInuB_42sHZHOCIRIg-1">
          <mxGeometry x="470" y="290" width="230" height="60" as="geometry" />
        </mxCell>
        <mxCell id="RUGPzeS4FUhRIcLk_c25-3" value="&lt;span style=&quot;font-size: 24px&quot;&gt;OS&lt;/span&gt;" style="rounded=0;whiteSpace=wrap;html=1;sketch=0;strokeColor=#b85450;fillColor=#f8cecc;" vertex="1" parent="BUcInuB_42sHZHOCIRIg-1">
          <mxGeometry x="720" y="290" width="180" height="60" as="geometry" />
        </mxCell>
        <mxCell id="RUGPzeS4FUhRIcLk_c25-6" value="&lt;font style=&quot;font-size: 24px&quot;&gt;HARDWARE UPDATE&lt;/font&gt;" style="rounded=0;whiteSpace=wrap;html=1;sketch=0;strokeColor=#b85450;fillColor=#f8cecc;" vertex="1" parent="BUcInuB_42sHZHOCIRIg-1">
          <mxGeometry x="940" y="290" width="290" height="60" as="geometry" />
        </mxCell>
        <mxCell id="RUGPzeS4FUhRIcLk_c25-8" value="&lt;span style=&quot;font-size: 24px&quot;&gt;NETOWRK ISSUES&lt;/span&gt;" style="rounded=0;whiteSpace=wrap;html=1;sketch=0;strokeColor=#b85450;fillColor=#f8cecc;" vertex="1" parent="BUcInuB_42sHZHOCIRIg-1">
          <mxGeometry x="1260" y="290" width="290" height="60" as="geometry" />
        </mxCell>
        <mxCell id="RUGPzeS4FUhRIcLk_c25-13" value="&lt;font style=&quot;font-size: 24px&quot;&gt;INTERNET BILL&lt;/font&gt;" style="rounded=0;whiteSpace=wrap;html=1;sketch=0;strokeColor=#b85450;fillColor=#f8cecc;" vertex="1" parent="BUcInuB_42sHZHOCIRIg-1">
          <mxGeometry x="1580" y="290" width="200" height="60" as="geometry" />
        </mxCell>
        <mxCell id="RUGPzeS4FUhRIcLk_c25-15" value="&lt;font style=&quot;font-size: 24px&quot;&gt;ELECTRICITY BILL&lt;/font&gt;" style="rounded=0;whiteSpace=wrap;html=1;sketch=0;strokeColor=#b85450;fillColor=#f8cecc;" vertex="1" parent="BUcInuB_42sHZHOCIRIg-1">
          <mxGeometry x="1800" y="290" width="250" height="60" as="geometry" />
        </mxCell>
      </root>
    </mxGraphModel>
  </diagram>
</mxfile>
